<svg xmlns="http://www.w3.org/2000/svg" width="2000" height="2000" fill="none" viewBox="0 0 2000 2000"><g class="Banking - illustration 7"><path fill="#fff" d="M0 0h2000v2000H0z"/><g class="Group"><path fill="url(#a)" d="M1617 455H453v991h1164V455Z" class="Vector"/><path fill="url(#b)" d="M161.81 454H695v1289H161.81C115 1743 77 1705 77 1658.19V538.8c0-46.81 38-84.81 84.81-84.81v.01Z" class="Vector"/><path fill="url(#c)" d="M248.81 454H695v1289H248.81c-46.81 0-84.81-38-84.81-84.81V538.8c0-46.81 38-84.81 84.81-84.81v.01Z" class="Vector"/><path fill="url(#d)" d="M248.3 932h1184.71v85H248.3c-22.24 0-40.29-18.05-40.29-40.29v-4.42c0-22.24 18.05-40.29 40.29-40.29Z" class="Vector"/><g class="Group"><path fill="url(#e)" d="M1089.43 1681h409.16c30.61 0 55.42-24.81 55.42-55.42v-503.16c0-30.61-24.81-55.42-55.42-55.42h-409.16c-30.61 0-55.42 24.81-55.42 55.42v503.16c0 30.61 24.81 55.42 55.42 55.42Z" class="Vector"/><path fill="url(#f)" d="M1091.26 1681h180.5c31.62 0 57.25-25.63 57.25-57.25v-499.5c0-31.62-25.63-57.25-57.25-57.25h-180.5c-31.62 0-57.25 25.63-57.25 57.25v499.5c0 31.62 25.63 57.25 57.25 57.25Z" class="Vector"/><path fill="url(#g)" d="M1091.41 1651h177.2c14.03 0 25.4-11.37 25.4-25.4v-498.2c0-14.03-11.37-25.4-25.4-25.4h-177.2c-14.03 0-25.4 11.37-25.4 25.4v498.2c0 14.03 11.37 25.4 25.4 25.4Z" class="Vector"/><path fill="url(#h)" d="M1232 1154h-111c-8.84 0-16 7.16-16 16s7.16 16 16 16h111c8.84 0 16-7.16 16-16s-7.16-16-16-16Z" class="Vector"/><path fill="url(#i)" d="M1232 1217h-111c-8.84 0-16 7.16-16 16s7.16 16 16 16h111c8.84 0 16-7.16 16-16s-7.16-16-16-16Z" class="Vector"/><path fill="url(#j)" d="M1232 1280h-111c-8.84 0-16 7.16-16 16s7.16 16 16 16h111c8.84 0 16-7.16 16-16s-7.16-16-16-16Z" class="Vector"/><path fill="url(#k)" d="M1176 1541c18.23 0 33-14.77 33-33s-14.77-33-33-33-33 14.77-33 33 14.77 33 33 33Z" class="Vector"/></g><path fill="url(#l)" d="M1822.19 455h-304.38c-46.84 0-84.81 37.971-84.81 84.81v1118.38c0 46.84 37.97 84.81 84.81 84.81h304.38c46.84 0 84.81-37.97 84.81-84.81V539.81c0-46.839-37.97-84.81-84.81-84.81Z" class="Vector"/><path fill="url(#m)" d="M1822.19 455h-223.38c-46.84 0-84.81 37.971-84.81 84.81v1118.38c0 46.84 37.97 84.81 84.81 84.81h223.38c46.84 0 84.81-37.97 84.81-84.81V539.81c0-46.839-37.97-84.81-84.81-84.81Z" class="Vector"/></g><g class="Group"><path fill="url(#n)" d="M1096.68 932.43H995.522c-10.68 0-17.38-15.1-17.38-15.1l-70.32-141.42c-5.53-10.96 2.43-23.89 14.7-23.89h99.358c6.22 0 11.9 3.5 14.7 9.05l74.46 147.5c5.29 10.47-1.74 23.25-13.45 23.85-.3.02-.6.02-.9.02l-.01-.01Z" class="Vector"/><path fill="url(#o)" d="M1075.38 932.43h-81.398c-7.76 0-16.05-15.21-16.05-15.21l-82.17-165.21h113.418l82.21 164.4c0 8.84-7.17 16.01-16.01 16.01v.01Z" class="Vector"/><path fill="url(#p)" d="M1097.48 901.98H869.862c-8.405 0-15.22 6.814-15.22 15.22v.01c0 8.406 6.815 15.22 15.22 15.22h227.618c8.41 0 15.22-6.814 15.22-15.22v-.01c0-8.406-6.81-15.22-15.22-15.22Z" class="Vector"/><path fill="url(#q)" d="M721.302 362h557.688c16.16 0 29.28 13.12 29.28 29.28v434.24c0 9.28-7.54 16.82-16.82 16.82H692.072c-9.28 0-16.82-7.54-16.82-16.82V408.04c0-25.41 20.63-46.04 46.04-46.04h.01Z" class="Vector"/><path fill="url(#r)" d="M692.582 362.24H1245.3c22.47 0 40.71 18.24 40.71 40.71v393.59c0 25.41-20.63 46.04-46.04 46.04H699.042c-25.41 0-46.04-20.63-46.04-46.04V401.83c0-21.85 17.74-39.59 39.59-39.59h-.01Z" class="Vector"/><path fill="url(#s)" d="M1245.54 380.11H694.882c-13.216 0-23.93 10.714-23.93 23.93v299.7c0 13.216 10.714 23.93 23.93 23.93h550.658c13.22 0 23.93-10.714 23.93-23.93v-299.7c0-13.216-10.71-23.93-23.93-23.93Z" class="Vector"/><path fill="url(#t)" d="M652.992 742.33v74.23c0 14.37 11.65 26.03 26.03 26.03h580.968c14.37 0 26.02-11.65 26.02-26.02v-74.23H652.992v-.01Z" class="Vector"/><path fill="#fff" d="M954.252 812.18c12.145 0 21.99-9.845 21.99-21.99 0-12.145-9.845-21.99-21.99-21.99-12.145 0-21.99 9.845-21.99 21.99 0 12.145 9.845 21.99 21.99 21.99Z" class="Vector"/></g><g class="Group"><path fill="url(#u)" d="M936.002 231h261.358c39.54 0 71.64 32.1 71.64 71.64v38.01c0 11.78-9.57 21.35-21.35 21.35H936.002V231Z" class="Vector"/><path fill="url(#v)" d="M1099.12 793c15.4 0 27.88-12.48 27.88-27.88V306.13c0-41.49 33.63-75.12 75.12-75.12H918.782c-34.12 0-61.79 27.66-61.79 61.79v472.33c0 15.4 12.48 27.88 27.88 27.88H1099.1l.02-.01Z" class="Vector"/><path fill="#fff" d="M1079.88 326H900.502c-6.351 0-11.5 5.149-11.5 11.5s5.149 11.5 11.5 11.5h179.378c6.35 0 11.5-5.149 11.5-11.5s-5.15-11.5-11.5-11.5Zm0 220.93H900.502c-6.351 0-11.5 5.149-11.5 11.5s5.149 11.5 11.5 11.5h179.378c6.35 0 11.5-5.149 11.5-11.5s-5.15-11.5-11.5-11.5Zm0 55.48H900.502c-6.351 0-11.5 5.149-11.5 11.5s5.149 11.5 11.5 11.5h179.378c6.35 0 11.5-5.149 11.5-11.5s-5.15-11.5-11.5-11.5Zm-71.27 55.48H900.502c-6.351 0-11.5 5.149-11.5 11.5s5.149 11.5 11.5 11.5h108.108c6.35 0 11.5-5.149 11.5-11.5s-5.15-11.5-11.5-11.5Zm29.59-291.44h-96.998c-6.351 0-11.5 5.149-11.5 11.5s5.149 11.5 11.5 11.5h96.998c6.35 0 11.5-5.149 11.5-11.5s-5.15-11.5-11.5-11.5Zm52.58 70.64H981.712c-6.351 0-11.5 5.149-11.5 11.5s5.149 11.5 11.5 11.5h109.068c6.35 0 11.5-5.149 11.5-11.5s-5.15-11.5-11.5-11.5Zm-60.59 38.65h-48.478c-6.351 0-11.5 5.149-11.5 11.5 0 6.352 5.149 11.5 11.5 11.5h48.478c6.35 0 11.5-5.148 11.5-11.5 0-6.351-5.15-11.5-11.5-11.5Z" class="Vector"/><g class="Group"><path fill="url(#w)" d="M918.752 500.99c19.181 0 34.73-15.549 34.73-34.73 0-19.181-15.549-34.73-34.73-34.73-19.181 0-34.73 15.549-34.73 34.73 0 19.181 15.549 34.73 34.73 34.73Z" class="Vector"/><path fill="#fff" d="M919.212 490.01c-.86 0-1.58-.28-2.14-.85-.57-.57-.85-1.26-.85-2.09v-4.09l1.3 1.2c-2.23-.07-4.2-.35-5.91-.85s-3.13-1.05-4.26-1.65c-.73-.37-1.24-.86-1.52-1.5-.28-.63-.39-1.28-.32-1.94.07-.66.31-1.26.72-1.79.42-.53.94-.87 1.57-1.02.63-.15 1.36-.03 2.19.37.8.43 1.91.86 3.34 1.3 1.43.43 3.17.65 5.23.65 1.56 0 2.8-.16 3.71-.47.91-.32 1.58-.77 1.99-1.37.42-.6.62-1.25.62-1.94 0-.63-.14-1.17-.42-1.62-.28-.45-.76-.85-1.42-1.2-.67-.35-1.58-.64-2.74-.87l-5.48-1.2c-3.02-.7-5.28-1.84-6.78-3.44-1.5-1.6-2.24-3.67-2.24-6.23 0-1.99.48-3.77 1.45-5.33.96-1.56 2.32-2.82 4.06-3.76 1.75-.95 3.8-1.54 6.16-1.77l-1.25.8v-3.79c0-.86.28-1.57.85-2.12.56-.55 1.28-.82 2.14-.82.86 0 1.53.27 2.09.82.56.55.85 1.26.85 2.12v3.79l-1.25-.85c1.33.03 2.79.27 4.39.72 1.6.45 2.97 1.09 4.14 1.92.63.4 1.07.9 1.32 1.5s.32 1.2.2 1.79c-.12.6-.38 1.12-.8 1.57-.42.45-.94.73-1.57.85-.63.12-1.38-.04-2.24-.47-.86-.43-1.84-.79-2.92-1.07-1.08-.28-2.39-.42-3.91-.42-1.99 0-3.52.4-4.59 1.2-1.06.8-1.6 1.83-1.6 3.09 0 .9.31 1.63.92 2.19.61.57 1.74 1.03 3.37 1.4l5.58 1.2c3.16.7 5.49 1.83 7 3.39 1.51 1.56 2.27 3.61 2.27 6.13 0 1.93-.48 3.65-1.45 5.16-.96 1.51-2.29 2.73-3.99 3.64-1.7.91-3.67 1.52-5.93 1.82l1.05-1.15v4.14c0 .83-.27 1.53-.82 2.09-.55.56-1.25.85-2.12.85l.01-.03Z" class="Vector"/></g></g><g class="Group"><g class="Group"><path fill="url(#x)" d="m451.002 706.999-108 35 38-162s-19.89-23.81-25.28-47.17c-1.61-6.97 7.94-27.73 10.42-35.61 9.55-30.34 22.92-86.77 22.92-86.77s4.52-11.27 15.98-4.56-5.02 78.17-5.02 78.17 55.64 1.1 58.26 20.22c5.3 38.72-16.42 64.29-16.42 64.29l9.16 138.43h-.02Z" class="Vector"/><path fill="url(#y)" d="m369.002 493.999 90 28s-12.89 35.89-58 32c-58-5-32-60-32-60Z" class="Vector"/><g class="Group"><path fill="url(#z)" d="M313.092 431.759c-.37.88.08 2.03.99 2.56l2.49 1.45c.91.53 1.94.24 2.31-.64.37-.88-.08-2.03-.99-2.56l-2.49-1.45c-.91-.53-1.94-.24-2.31.64Z" class="Vector"/><path fill="url(#A)" d="M456.662 510.269s2.46-3.46 1.67-4.94c-2.5-4.7-6.84-5.38-10.39-6.9-3.95-1.69-16.18-10.22-16.18-10.22s-2.42 1.11-4.61-.52c-4.42-3.29-4.46-7.91-4.46-7.91s35.83 16.05 39.48 21.05c5.67 7.76.3 14.06.3 14.06l-5.8-4.61-.01-.01Z" class="Vector"/><path fill="url(#B)" d="m460.882 524.829 7.1 4.08c2.11 1.21 4.49.53 5.32-1.51.81-2-.17-4.58-2.21-5.82l-7.29-4.42-2.92 7.68v-.01Z" class="Vector"/><path fill="url(#C)" d="m316.432 431.769-1.22 3.21c-.07.18 0 .41.16.55 42.56 38.37 106.11 73.56 145.92 90.47.48.2.97.03 1.16-.41l3.18-7.26c.19-.43.03-.99-.37-1.33-46.03-38.67-111.38-73.85-148.35-85.45-.2-.06-.4.03-.47.21l-.01.01Z" class="Vector"/><path fill="url(#D)" d="M412.372 501.999c4.11-5.6 6.58-11.72 7.5-18.33 1.63 1.06 3.25 2.13 4.86 3.21-.52 6.75-3.97 13.51-7.38 17.82-1.65-.89-3.31-1.78-4.98-2.7Z" class="Vector"/><path fill="url(#E)" d="M324.652 434.179c7.76 2.83 16.98 6.66 26.22 10.95-3.87 4.22-5.36 9.92-5.58 14.56-8.19-6-16.06-12.18-23.43-18.46 0-2.03 1.35-5.32 2.78-7.05h.01Z" class="Vector"/></g><path fill="url(#F)" d="M424.25 474.56c2.46-6.321-.669-13.438-6.989-15.899-6.32-2.46-13.438.669-15.898 6.989l-16.658 42.792c-2.46 6.32.669 13.438 6.989 15.898 6.32 2.461 13.438-.668 15.898-6.988l16.658-42.792Z" class="Vector"/><path fill="url(#G)" d="M444.953 484.974c2.46-6.32-.669-13.438-6.989-15.899-6.32-2.46-13.438.669-15.898 6.989l-16.658 42.792c-2.46 6.32.669 13.438 6.989 15.898 6.32 2.461 13.438-.668 15.898-6.988l16.658-42.792Z" class="Vector"/><path fill="url(#H)" d="M462.333 493.962c2.028-5.208-.551-11.074-5.759-13.101-5.208-2.028-11.074.551-13.102 5.759l-13.716 35.235c-2.027 5.208.551 11.074 5.76 13.101 5.208 2.028 11.074-.551 13.101-5.759l13.716-35.235Z" class="Vector"/><path fill="url(#I)" d="M396.592 513.193c6.954-4.858 8.653-14.434 3.795-21.388-4.859-6.954-14.435-8.653-21.389-3.795l-25.641 17.915c-6.954 4.858-8.653 14.434-3.795 21.388 4.859 6.954 14.434 8.653 21.389 3.795l25.641-17.915Z" class="Vector"/></g><path fill="url(#J)" d="M516.162 599.21c38.75 22.9 45.92 59.43 25.45 101.86-20.47 42.43-114.4 215.93-137.86 239.47-24.65 24.74-51.73 25.63-75.34 14.5-26.77-12.63-45.7-40.01-33.07-82.04 15.32-51 82.27-219.07 106.92-248.98 19.54-23.71 56.6-58.67 113.89-24.81h.01Z" class="Vector"/><path fill="url(#K)" d="M470.162 829.509c5.77 1.61 11.86-1.11 14.55-6.47 22.71-45.32 44.06-98.83 52.24-116.91 20.72-45.78 12.47-84.58-28.7-108.04-60.88-34.69-99.19 3.55-119.28 29.34-14.28 18.32-47.78 81.75-72.59 144.94-2.71 6.9 1.14 14.64 8.28 16.63l145.5 40.52v-.01Z" class="Vector"/><path fill="url(#L)" d="M431.702 630.119c-43.31 3.13-47.69 155.87-71.69 248.87-11.31 43.82-24.09 64.74-34.44 74.62.94.49 1.89.97 2.85 1.42 23.61 11.14 50.68 10.24 75.34-14.5 8.77-8.8 27.4-38.58 48.36-74.63 4.72-106.67 5.31-237.65-20.41-235.79l-.01.01Z" class="Vector"/><g class="Group"><path fill="url(#M)" d="M659.572 363.269s21.83-38.48 14.08-70.57c-12.04-49.87-52.24-4.7-118.03-10.14-58.13-4.81-149.3 59.39-98.86 157.92 42.09 82.2 61.47 106.17 61.47 106.17l68.17-70.48 73.16-112.9h.01Z" class="Vector"/><path fill="url(#N)" d="m513.942 557.399 35.79-79.01 8.96-10.48 60.59 31.45-8.6 61.26-96.74-3.22Z" class="Vector"/><path fill="url(#O)" d="M611.002 557.999c-8.28 2.08-43.58-3.58-51-11-12-12-15.35-33.32-10.28-68.61l8.97-10.48 57.31 56.09-5 34Z" class="Vector"/><path fill="url(#P)" d="M649.242 333.469s30.96.47 24.53 89.69c-.61 8.51 7.88 15.63 16.22 24.36 8.55 8.95-12.77 26.64-12.77 26.64s-10.54 56.35-34.24 75.58c-5.57 4.52-47.79 1.13-75.24-23.77-13.62-12.35-18.4-49.74-18.4-49.74s-12.26 3.38-22.95-8.9c-15.77-18.13-5.32-54.03 15.37-56.3 27.17-2.98 29.28 25.09 37.54 29.4 17.41 9.08-1.42-60.16 22.32-65.55 22.89-5.2 47.63-41.42 47.63-41.42l-.01.01Z" class="Vector"/><path fill="url(#Q)" d="M562.811 444.942c1.711-10.258-4.577-19.854-14.045-21.433-9.468-1.58-18.53 5.456-20.241 15.714-1.711 10.257 4.577 19.853 14.045 21.432 9.468 1.58 18.53-5.455 20.241-15.713Z" class="Vector"/><path fill="url(#R)" d="M562.902 432.75c-2.15-4.61-5.96-8.1-10.73-9.82a2.783 2.783 0 1 0-1.88 5.24c3.37 1.21 6.06 3.67 7.57 6.93.38.82.68 1.68.89 2.55-3.67-1.94-8.81-3.09-14-2.4-1.52.2-2.59 1.6-2.39 3.13.2 1.53 1.61 2.6 3.13 2.39 6.92-.92 12.43 2.37 13.07 3.66.04.1.09.19.15.28-.14.54-.29 1.08-.49 1.62-1.64 4.46-6.74 11.23-10.98 11.7a2.778 2.778 0 0 0-2.46 3.07 2.788 2.788 0 0 0 2.76 2.48c.1 0 .21 0 .31-.02 7.15-.79 13.42-9.43 15.59-15.3 1.91-5.17 1.72-10.67-.53-15.5l-.01-.01Z" class="Vector"/><path fill="url(#S)" d="M661.802 497.689c-4.76 0-22.95-1-37.94-15.44a2.783 2.783 0 0 1-.07-3.94 2.77 2.77 0 0 1 3.93-.07c15.24 14.68 34.75 13.88 34.94 13.87 1.55-.07 2.84 1.1 2.92 2.63a2.775 2.775 0 0 1-2.63 2.92c-.11 0-.51.02-1.16.02l.01.01Z" class="Vector"/></g><path fill="url(#T)" d="m751.002 1396-90 206-82-50 60-187 112 31Z" class="Vector"/><path fill="url(#U)" d="m863.002 1166.49-136.55 352.71c-4.65 12-18.2 17.89-30.14 13.09l-100.09-40.18c-11.35-4.56-17.18-17.17-13.3-28.76l112.58-336.2s45.11-104.45 83.47-98.36c18.6 2.95 51.05 66.25 69.72 105.99 8.63 18.38 14.31 31.71 14.31 31.71Z" class="Vector"/><path fill="url(#V)" d="M964.002 1120c0 113.11-97 108-97 108l-343.28.06c-76.51-.03-156.19-73.81-142.14-153.66l7.99-45.4h480.33s94.1-9 94.1 91Z" class="Vector"/><g class="Group"><path fill="url(#W)" d="m466.402 584.039 27.23-32.34a19.962 19.962 0 0 1 17.35-6.99l100.22 10.55c6.61.7 12.44 4.63 15.54 10.51l14.18 26.79-174.53-8.51.01-.01Z" class="Vector"/><path fill="url(#X)" d="m706.822 1030.9-310.88-1.92c-10.22-.06-18.23-8.8-17.39-18.99 5.69-69.571 25.33-308.881 28.26-332.311 9.58-76.62 56.4-93.65 56.4-93.65l229.87 10.64 27.93 421.171c.54 8.18-5.98 15.11-14.18 15.05l-.01.01Z" class="Vector"/><path fill="url(#Y)" d="m698.682 679.27-82.83-7.13s-18.37 63.83 59.42 140.04c12.66 12.4 24.1 21.16 34.05 27.36l-10.63-160.27h-.01Z" class="Vector"/></g><g class="Group"><path fill="url(#Z)" d="M777.182 1744h-156.74s-32.53-3.05-50.84-33.58c-19.19-31.99-45.28-67.51-55.71-94.63-15.26-39.68 26.74-68.1 38.92-83.18 16.03-19.84 36.3-22.11 53.42-15.26 22.89 9.16 21.37 29.76 34.34 39.68 11.96 9.14 32.99 2.1 38.92 7.63 11.45 10.68 9.76 44.77 20.61 70.97 9.16 22.13 31.86 30.75 55.71 41.97 38.92 18.32 21.37 66.4 21.37 66.4Z" class="Vector"/><path fill="url(#aa)" d="M755.812 1677.6c-16.79-7.9-33-14.52-44.33-25.46 9.24 31.29 6.85 65.09-2.55 91.85h68.25s17.55-48.08-21.37-66.4v.01Z" class="Vector"/><path fill="url(#ab)" d="M569.602 1710.42c18.32 30.53 50.84 33.58 50.84 33.58h156.74s2.44-6.69 3.48-16.03c-25.33 1.09-62.29 1.73-82.85-2.29-35.11-6.87-55.01-61.01-84.71-106.08-22.13-33.58-46.55-64.87-79.37-59.53-2.96.48-5.77 1.14-8.44 1.93-11.31 14.48-19.58 32.51-11.4 53.78 10.43 27.12 36.52 62.65 55.71 94.63v.01Z" class="Vector"/><path fill="url(#ac)" d="M608.522 1646.31c-24.87-40-39.68-64.87-72.5-67.16-11.69-.82-19.58 4.94-24.86 12.35-1.2 7.55-.6 15.64 2.73 24.28 10.43 27.12 36.52 62.65 55.71 94.63 18.32 30.53 50.84 33.58 50.84 33.58h75.11c-8.7-2.52-18.09-6.37-27.51-12.21-22.13-13.74-41.97-57.24-59.53-85.47h.01Z" class="Vector"/><path fill="url(#ad)" d="M675.682 1617.31c1.37 0 2.73-.52 3.78-1.56l12.21-12.21c-.8-4.42-1.53-8.73-2.3-12.81l-17.46 17.46a5.341 5.341 0 0 0 3.78 9.12h-.01Z" class="Vector"/><path fill="url(#ae)" d="M690.942 1647.84c1.37 0 2.73-.52 3.78-1.56l7.05-7.05c-.6-1.16-1.16-2.35-1.67-3.59a95.22 95.22 0 0 1-2.63-7.22l-10.31 10.31a5.341 5.341 0 0 0 3.78 9.12v-.01Z" class="Vector"/></g><path fill="url(#af)" d="m1148 1599-104.21 22-57.788-115 105.158-62 56.84 155Z" class="Vector"/><g class="Group"><path fill="url(#ag)" d="M1007.7 1734.73h326.35c4.07 0 7.5-3.02 8.04-7.06 2.65-20.12 4.03-76.54-63.25-79.64-91.64-4.23-87.41-70.49-126.88-76.13-20.95-2.99-18.33 23.26-53.57 27.49-17.04 2.04-41.7-6.89-63.42-13.28-13.26-3.9-26.8 5.19-28.29 18.93l-12.398 114.73c-.86 7.99 5.4 14.96 13.428 14.96h-.01Z" class="Vector"/><path fill="url(#ah)" d="M1278.84 1648.03c-9.54-.44-18.03-1.56-25.65-3.21-26.91 21.41-36.77 52.4-35.04 89.91h115.9c4.07 0 7.5-3.02 8.04-7.06 2.65-20.12 4.03-76.54-63.25-79.64Z" class="Vector"/><path fill="url(#ai)" d="M1342.23 1701.6H996.232l-1.96 18.17c-.27 2.5.16 4.9 1.11 7.01.38.85.85 1.65 1.4 2.39a13.704 13.704 0 0 0 4.068 3.7c.4.24.81.45 1.24.65 1.7.78 3.6 1.21 5.61 1.21h326.35c4.06 0 7.5-3 8.03-7.03.81-6.15 1.51-15.71.15-26.1Z" class="Vector"/><path fill="url(#aj)" d="M1157.6 1629c1.16 0 2.32-.35 3.32-1.09l30.72-22.47c-2.44-3.02-4.73-6.01-6.97-8.88l-30.41 22.24a5.64 5.64 0 0 0 3.34 10.19v.01Z" class="Vector"/><path fill="url(#ak)" d="M1191.59 1650.46c1.23 0 2.46-.4 3.5-1.22l23.34-18.5a94.49 94.49 0 0 1-9.36-6.98l-20.99 16.64a5.64 5.64 0 0 0 3.5 10.06h.01Z" class="Vector"/></g><path fill="url(#al)" d="M974.792 1104.04c15.87 34.7 125.118 304.17 155.788 379.9 4.43 10.94-.77 23.4-11.66 27.95l-120.508 50.38c-11.07 4.63-23.8-.68-28.29-11.82l-142.36-352.9s-53.06-119.3 28.24-150.57c78-30 101.64 19.57 118.78 57.05l.01.01Z" class="Vector"/><g class="Group"><path fill="url(#am)" d="M1028.83 520.58s-14.91-28.84-8.43-55.48c4.65-19.13 26.08-66.5 30.38-76.28 2.36-5.38 19.11-8.88 17.59 12.99-1.29 18.53-7.69 32.03-2.78 34.33 6.26 2.94 44.53-46.51 59.13-65.79 3.56-4.7 10.92-4.45 13.81.69.11.19.2.38.29.57 2.86 6.35 1.12 10.96-.63 15.57l-15.01 31.03s8.91 1.66 9.05 12.1c.07 5.14-4.04 20.47-4.04 20.47s5.28.71 6.49 7.42c1.35 7.48-2.57 19.32-5.48 26.74-17.07 43.42-43.61 53.36-43.61 53.36l-69.35 198.929s-27.918 87.43-95.228 62.19c-62.19-23.32-20.41-93.289-20.41-93.289l128.228-185.55Z" class="Vector"/><path fill="url(#an)" d="M1128.19 450.779s1.51.13 2.79 1.21l-7.94 25.52c-.37.74-1.06 1.21-1.81 1.35-.52.09-1.08.02-1.59-.23a2.528 2.528 0 0 1-1.11-3.41l9.67-24.44h-.01Z" class="Vector"/><path fill="url(#ao)" d="M1123.18 418.209s1.59.3 3.43 1.43l-18.74 35.47a2.53 2.53 0 0 1-3.38 1.18 2.537 2.537 0 0 1-1.17-3.39l19.87-34.68-.01-.01Z" class="Vector"/><path fill="url(#ap)" d="M896.032 715.18c29.58 17.12 105.108 56.82 105.628 16.22.51-39.27-35.628-80.351-51.718-96.671l-49.34 71.401s-2.05 3.439-4.57 9.039v.011Z" class="Vector"/></g><path fill="url(#aq)" d="M615.242 643.329c14.78-42.51 49.16-56.78 94.8-45.12 45.64 11.66 234.31 69.37 262.03 87.7 29.128 19.26 35.368 45.62 29.128 70.97-7.078 28.74-30.168 52.72-73.858 48.67-53.02-4.92-231.03-37.26-265.22-55.5-27.11-14.46-68.72-43.86-46.88-106.72Z" class="Vector"/><path fill="url(#ar)" d="M860.972 637.779a8.74 8.74 0 0 0-6.49-9.85c-51.85-13.09-127.54-26.67-147.51-30.81-49.69-10.31-86.11 6.38-100.14 52.13-20.75 67.65 25.39 96.96 55.24 111.07 21.76 10.29 94.78 30.04 164.14 40.35 4.74.7 9.16-2.54 9.92-7.27l24.83-155.62h.01Z" class="Vector"/><path fill="url(#as)" d="M625.692 384.729c-6.7 3.81-3.4 10.29 2.01 8.16 9.02-3.57 13.15-4.17 24.48-2.49 9.5 1.4 10.12-11.83.46-12.34-12.03-.62-17.53 1.42-26.96 6.66l.01.01Z" class="Vector"/><path fill="url(#at)" d="M659.922 416.55c-.57-6.51-4.92-11.45-9.71-11.03-4.79.42-8.21 6.04-7.64 12.56.57 6.51 4.92 11.45 9.71 11.03 4.79-.42 8.21-6.04 7.64-12.56Z" class="Vector"/></g><g class="Group"><path fill="url(#au)" d="M626.055 1205c5.54-152.26-19.65-304.451-63.39-456.571-4.8-16.68-20.08-28.16-37.44-28.17l-225.55-.22c-23.53-.02-41.72 20.63-38.73 43.97l61.69 480.951c2.5 19.46 19.06 34.04 38.69 34.04h610.68c20.43 0 36.995-16.57 36.995-37s-16.565-37-36.995-37h-345.95Z" class="Vector"/><path fill="url(#av)" d="M531.255 1279h-224.72c-21.99 0-39.57-18.16-38.99-40.14 4.25-159.85-14.37-316.371-57.62-469.291-7.03-24.87 11.75-49.54 37.6-49.52l220.58.21c17.07.02 32.15 11.13 37.22 27.42 46.55 149.63 64.79 315.671 64.94 492.201.02 21.58-17.42 39.12-39.01 39.12Z" class="Vector"/><path fill="url(#aw)" d="M646.005 1279h-76v225h76v-225Z" class="Vector"/><path fill="url(#ax)" d="M503.005 1279h209v14.25c0 15.87-12.88 28.75-28.75 28.75h-151.5c-15.87 0-28.75-12.88-28.75-28.75V1279Z" class="Vector"/><g class="Group"><path fill="url(#ay)" d="M811.945 1539.06h-142.4c-7.78 0-14.08-6.3-14.08-14.08v-51.19c0-8.17-6.62-14.79-14.79-14.79h-65.88c-8.17 0-14.79 6.62-14.79 14.79v51.19c0 7.78-6.3 14.08-14.08 14.08h-130.64c-30.61 0-55.43 24.81-55.43 55.43v89.3h55.43v-44.89c0-24.53 19.88-44.41 44.41-44.41h124.95v89.3h55.43v-89.3h127.47c24.53 0 44.41 19.88 44.41 44.41v44.89h55.43v-89.3c0-30.61-24.81-55.43-55.43-55.43h-.01Z" class="Vector"/><path fill="url(#az)" d="M386.035 1770c21.257 0 38.49-17.23 38.49-38.49s-17.233-38.49-38.49-38.49c-21.258 0-38.49 17.23-38.49 38.49s17.232 38.49 38.49 38.49Z" class="Vector"/><path fill="url(#aA)" d="M425.945 1723.81h-77.3c-5.21 0-8.96-3.65-7.5-7.29l13.85-34.78c.97-2.44 4.03-4.11 7.5-4.11h49.59c3.48 0 6.53 1.68 7.5 4.11l13.85 34.78c1.45 3.65-2.3 7.29-7.5 7.29h.01Z" class="Vector"/><path fill="url(#aB)" d="M841.195 1770c21.257 0 38.49-17.23 38.49-38.49s-17.233-38.49-38.49-38.49c-21.258 0-38.49 17.23-38.49 38.49s17.232 38.49 38.49 38.49Z" class="Vector"/><path fill="url(#aC)" d="M801.295 1723.81h77.3c5.21 0 8.96-3.65 7.5-7.29l-13.85-34.78c-.97-2.44-4.03-4.11-7.5-4.11h-49.59c-3.48 0-6.53 1.68-7.5 4.11l-13.85 34.78c-1.45 3.65 2.3 7.29 7.5 7.29h-.01Z" class="Vector"/><path fill="url(#aD)" d="M610.815 1770c21.257 0 38.49-17.23 38.49-38.49s-17.233-38.49-38.49-38.49c-21.258 0-38.49 17.23-38.49 38.49s17.232 38.49 38.49 38.49Z" class="Vector"/><path fill="url(#aE)" d="M650.725 1723.81h-77.3c-5.21 0-8.96-3.65-7.5-7.29l13.85-34.78c.97-2.44 4.03-4.11 7.5-4.11h49.59c3.48 0 6.53 1.68 7.5 4.11l13.85 34.78c1.45 3.65-2.3 7.29-7.5 7.29h.01Z" class="Vector"/></g></g><g class="Group"><path fill="url(#aF)" d="M1631.13 747h210.74c12.21 0 22.13 9.92 22.13 22.13v375.68c0 5.63-4.57 10.19-10.19 10.19H1619.2c-5.63 0-10.19-4.57-10.19-10.19V769.13c0-12.21 9.92-22.13 22.13-22.13h-.01Z" class="Vector"/><path fill="url(#aG)" d="M1917.57 1117h-238.99c-4.13 0-7.95-2.21-10.01-5.8-50.42-87.45-61.58-183.21-59.87-342.3.13-12.13 10-21.9 22.13-21.9h210.74c12.32 0 22.26 10.07 22.12 22.39-1.54 137.41 9.24 233.05 59.23 339.16 1.85 3.93-1 8.46-5.35 8.46v-.01Z" class="Vector"/><path fill="url(#aH)" d="M1609 831h255v-61.87c0-12.22-9.91-22.13-22.13-22.13h-210.74c-12.22 0-22.13 9.91-22.13 22.13V831Z" class="Vector"/><g class="Group"><path fill="#fff" d="M1699.32 806.35c-1.03.06-1.85-.21-2.44-.82-.59-.61-.89-1.37-.89-2.28 0-.72.22-1.35.66-1.9.44-.55 1.05-.84 1.83-.87l1.36-.09c1.25-.09 2.19-.45 2.82-1.08.63-.62.94-1.58.94-2.86v-20.23c0-1.19.31-2.1.94-2.72.63-.62 1.52-.94 2.68-.94 1.16 0 2.1.31 2.72.94.63.63.94 1.53.94 2.72v20.14c0 2.07-.37 3.81-1.1 5.23-.74 1.42-1.84 2.54-3.31 3.33-1.47.8-3.29 1.26-5.45 1.38l-1.69.05h-.01Zm19.06.05c-.88 0-1.59-.2-2.14-.59-.55-.39-.88-.93-1.01-1.62-.12-.69 0-1.46.38-2.3l12.07-26.38c.5-1.03 1.1-1.78 1.81-2.25.7-.47 1.49-.7 2.37-.7.88 0 1.71.23 2.39.7.69.47 1.28 1.22 1.78 2.25l12.07 26.38c.41.88.56 1.65.45 2.32a2.36 2.36 0 0 1-.99 1.6c-.55.39-1.23.59-2.04.59-1.06 0-1.89-.24-2.46-.73-.58-.48-1.09-1.26-1.53-2.32l-2.82-6.53 2.91 2.02h-19.58l2.91-2.02-2.77 6.53c-.5 1.06-1 1.84-1.5 2.32-.5.49-1.27.73-2.3.73Zm13.43-25.73-6.06 14.37-1.27-1.88h14.69l-1.22 1.88-6.06-14.37h-.09.01Zm24.41 25.73c-1.1 0-1.93-.29-2.51-.87-.58-.58-.87-1.43-.87-2.56v-26.81c0-1.19.29-2.09.87-2.7.58-.61 1.35-.92 2.32-.92.84 0 1.49.16 1.95.47.45.31.98.83 1.57 1.55l16.48 21.03h-1.31v-19.67c0-1.06.3-1.89.89-2.49.59-.59 1.46-.89 2.58-.89 1.06 0 1.89.3 2.46.89.58.6.87 1.42.87 2.49v27.14c0 1.03-.27 1.85-.8 2.44-.53.59-1.25.89-2.16.89-.91 0-1.57-.17-2.09-.49-.52-.33-1.09-.85-1.71-1.57l-16.43-21.03h1.27v19.67c0 1.13-.29 1.98-.87 2.56-.58.58-1.42.87-2.51.87Z" class="Vector"/></g><g class="Group"><path fill="#fff" d="M1730.01 1021.3c-11.37 0-21.22-4.25-29.55-12.75-8.33-8.5-14.55-20.54-18.66-36.12-2.81-10.65-3.82-19.56-3.02-26.72.8-7.16 3.37-12.57 7.73-16.25 4.36-3.67 10.3-5.5 17.81-5.5 11.46 0 21.29 4.12 29.51 12.35 8.21 8.24 14.4 20.23 18.55 35.98 2.76 10.47 3.76 19.36 3 26.65-.76 7.3-3.28 12.84-7.56 16.65-4.28 3.81-10.22 5.71-17.83 5.71h.02Zm-4.43-16.78c5.19 0 8.36-2.57 9.51-7.72 1.15-5.15.25-13.31-2.71-24.5-2.95-11.19-6.31-19.24-10.07-24.17-3.76-4.92-8.28-7.39-13.56-7.39-5.28 0-8.39 2.46-9.6 7.39-1.21 4.92-.34 12.98 2.62 24.17 2.95 11.19 6.36 19.36 10.22 24.5 3.86 5.15 8.39 7.72 13.58 7.72h.01Zm65.3 15.44c-2.78 0-5.1-.76-6.98-2.28-1.88-1.52-3.17-3.62-3.88-6.31-.73-2.77-.55-4.88.55-6.31 1.1-1.43 3.04-2.15 5.81-2.15h13.69l-15.97-60.55h9.8l-16.45 11.95c-1.75 1.16-3.53 1.63-5.33 1.41-1.8-.22-3.5-.96-5.08-2.22-1.59-1.25-2.81-2.75-3.67-4.5-.86-1.75-1.17-3.49-.91-5.24.25-1.75 1.2-3.24 2.84-4.5l15.69-11.28c1.57-1.16 3.23-2.08 4.98-2.75a15.08 15.08 0 0 1 5.44-1.01c2.69 0 4.99.67 6.91 2.01 1.92 1.34 3.25 3.4 3.98 6.18l18.6 70.49h12.22c2.77 0 5.11.72 7.01 2.15 1.9 1.43 3.22 3.54 3.95 6.31.73 2.78.53 4.9-.6 6.38-1.13 1.48-3.09 2.21-5.86 2.21h-46.72l-.02.01Z" class="Vector"/></g></g></g><defs><linearGradient id="a" x1="1105.21" x2="1023.17" y1="1833.25" y2="801.74" class="a" gradientUnits="userSpaceOnUse"><stop stop-color="#072088"/><stop offset="1" stop-color="#6CC7FC"/></linearGradient><linearGradient id="b" x1="754.72" x2="157.89" y1="2226.92" y2="342.42" class="b" gradientUnits="userSpaceOnUse"><stop stop-color="#69D4D9"/><stop offset="1" stop-color="#fff"/></linearGradient><linearGradient id="c" x1="774.86" x2="-179.12" y1="1501.85" y2="311.69" class="c" gradientUnits="userSpaceOnUse"><stop stop-color="#69D4D9"/><stop offset="1" stop-color="#fff"/></linearGradient><linearGradient id="d" x1="3342.75" x2="648.37" y1="986.68" y2="973.56" class="d" gradientUnits="userSpaceOnUse"><stop stop-color="#69D4D9"/><stop offset="1" stop-color="#fff"/></linearGradient><linearGradient id="e" x1="1136.09" x2="1337.27" y1="3359.77" y2="829.95" class="e" gradientUnits="userSpaceOnUse"><stop stop-color="#FAF3EB"/><stop offset=".5" stop-color="#ECDBA9"/><stop offset="1" stop-color="#C7A35F"/></linearGradient><linearGradient id="f" x1="1060.9" x2="1256.44" y1="2890.54" y2="431.79" class="f" gradientUnits="userSpaceOnUse"><stop stop-color="#C7A35F"/><stop offset=".5" stop-color="#ECDBA9"/><stop offset="1" stop-color="#FAF3EB"/></linearGradient><linearGradient id="g" x1="1112.55" x2="1287.73" y1="2224.69" y2="21.96" class="g" gradientUnits="userSpaceOnUse"><stop stop-color="#C7A35F"/><stop offset=".5" stop-color="#ECDBA9"/><stop offset="1" stop-color="#FAF3EB"/></linearGradient><linearGradient id="h" x1="1186.56" x2="1173.83" y1="1296.46" y2="1136.4" class="h" gradientUnits="userSpaceOnUse"><stop stop-color="#836961"/><stop offset=".5" stop-color="#5C371F"/><stop offset="1" stop-color="#452811"/></linearGradient><linearGradient id="i" x1="1186.56" x2="1173.83" y1="1359.46" y2="1199.4" class="i" gradientUnits="userSpaceOnUse"><stop stop-color="#836961"/><stop offset=".5" stop-color="#5C371F"/><stop offset="1" stop-color="#452811"/></linearGradient><linearGradient id="j" x1="1186.56" x2="1173.83" y1="1422.46" y2="1262.4" class="j" gradientUnits="userSpaceOnUse"><stop stop-color="#836961"/><stop offset=".5" stop-color="#5C371F"/><stop offset="1" stop-color="#452811"/></linearGradient><linearGradient id="k" x1="1174.9" x2="1176.12" y1="1743.08" y2="1483.33" class="k" gradientUnits="userSpaceOnUse"><stop stop-color="#6CC7FC"/><stop offset="1" stop-color="#072088"/></linearGradient><linearGradient id="l" x1="1753.9" x2="1648.6" y1="2153.94" y2="829.86" class="l" gradientUnits="userSpaceOnUse"><stop stop-color="#69D4D9"/><stop offset="1" stop-color="#fff"/></linearGradient><linearGradient id="m" x1="1768.77" x2="1616.18" y1="1831.71" y2="-87.06" class="m" gradientUnits="userSpaceOnUse"><stop stop-color="#69D4D9"/><stop offset="1" stop-color="#fff"/></linearGradient><linearGradient id="n" x1="1009.44" x2="1009.98" y1="857.51" y2="1242.65" class="n" gradientUnits="userSpaceOnUse"><stop stop-color="#072088"/><stop offset="1" stop-color="#6CC7FC"/></linearGradient><linearGradient id="o" x1="993.652" x2="993.002" y1="801.18" y2="1076.62" class="o" gradientUnits="userSpaceOnUse"><stop stop-color="#072088"/><stop offset="1" stop-color="#6CC7FC"/></linearGradient><linearGradient id="p" x1="1080.8" x2="701.622" y1="916.3" y2="919.85" class="p" gradientUnits="userSpaceOnUse"><stop stop-color="#072088"/><stop offset="1" stop-color="#6CC7FC"/></linearGradient><linearGradient id="q" x1="1122.89" x2="959.342" y1="2256.94" y2="200.36" class="q" gradientUnits="userSpaceOnUse"><stop stop-color="#072088"/><stop offset="1" stop-color="#6CC7FC"/></linearGradient><linearGradient id="r" x1="1070.23" x2="907.222" y1="1866.45" y2="-183.33" class="r" gradientUnits="userSpaceOnUse"><stop stop-color="#072088"/><stop offset="1" stop-color="#6CC7FC"/></linearGradient><linearGradient id="s" x1="1000.38" x2="962.992" y1="1035.88" y2="438.53" class="s" gradientUnits="userSpaceOnUse"><stop stop-color="#69D4D9"/><stop offset="1" stop-color="#fff"/></linearGradient><linearGradient id="t" x1="969.432" x2="970.032" y1="724.87" y2="1154.59" class="t" gradientUnits="userSpaceOnUse"><stop stop-color="#072088"/><stop offset="1" stop-color="#6CC7FC"/></linearGradient><linearGradient id="u" x1="1102.5" x2="1102.5" y1="260.91" y2="776.17" class="u" gradientUnits="userSpaceOnUse"><stop stop-color="#072088"/><stop offset="1" stop-color="#6CC7FC"/></linearGradient><linearGradient id="v" x1="1029.57" x2="1029.57" y1="793.98" y2="-38.31" class="v" gradientUnits="userSpaceOnUse"><stop stop-color="#ACED77"/><stop offset="1" stop-color="#349D7A"/></linearGradient><linearGradient id="w" x1="926.712" x2="915.722" y1="575.98" y2="424.57" class="w" gradientUnits="userSpaceOnUse"><stop stop-color="#FF8500"/><stop offset="1" stop-color="#FBD44E"/></linearGradient><linearGradient id="x" x1="354.153" x2="416.866" y1="1482.18" y2="373.087" class="x" gradientUnits="userSpaceOnUse"><stop stop-color="#FD5C72"/><stop offset="1" stop-color="#FDC6AA"/></linearGradient><linearGradient id="y" x1="436.152" x2="374.202" y1="616.209" y2="387.269" class="y" gradientUnits="userSpaceOnUse"><stop stop-color="#FDC6AA"/><stop offset="1" stop-color="#FD5C72"/></linearGradient><linearGradient id="z" x1="290.176" x2="308.567" y1="435.718" y2="443.285" class="z" gradientUnits="userSpaceOnUse"><stop stop-color="#C8A182"/><stop offset="1" stop-color="#452811"/></linearGradient><linearGradient id="A" x1="479.761" x2="443.35" y1="480.186" y2="497.265" class="A" gradientUnits="userSpaceOnUse"><stop stop-color="#ACED77"/><stop offset="1" stop-color="#349D7A"/></linearGradient><linearGradient id="B" x1="455.598" x2="469.493" y1="518.393" y2="524.861" class="B" gradientUnits="userSpaceOnUse"><stop stop-color="#69D4D9"/><stop offset="1" stop-color="#fff"/></linearGradient><linearGradient id="C" x1="331.242" x2="292.427" y1="450.946" y2="536.528" class="C" gradientUnits="userSpaceOnUse"><stop stop-color="#ACED77"/><stop offset="1" stop-color="#349D7A"/></linearGradient><linearGradient id="D" x1="418.391" x2="426.643" y1="491.868" y2="561.731" class="D" gradientUnits="userSpaceOnUse"><stop stop-color="#fff"/><stop offset="1"/></linearGradient><linearGradient id="E" x1="291.199" x2="270.105" y1="377.675" y2="403.686" class="E" gradientUnits="userSpaceOnUse"><stop stop-color="#69D4D9"/><stop offset="1" stop-color="#fff"/></linearGradient><linearGradient id="F" x1="335.879" x2="412.666" y1="487.877" y2="496.745" class="F" gradientUnits="userSpaceOnUse"><stop stop-color="#FD5C72"/><stop offset="1" stop-color="#FDC6AA"/></linearGradient><linearGradient id="G" x1="432.018" x2="369.548" y1="507.513" y2="454.563" class="G" gradientUnits="userSpaceOnUse"><stop stop-color="#FDC6AA"/><stop offset="1" stop-color="#FD5C72"/></linearGradient><linearGradient id="H" x1="406.929" x2="449.023" y1="487.458" y2="509.766" class="H" gradientUnits="userSpaceOnUse"><stop stop-color="#FD5C72"/><stop offset="1" stop-color="#FDC6AA"/></linearGradient><linearGradient id="I" x1="208.352" x2="394.8" y1="544.454" y2="476.285" class="I" gradientUnits="userSpaceOnUse"><stop stop-color="#FD5C72"/><stop offset="1" stop-color="#FDC6AA"/></linearGradient><linearGradient id="J" x1="581.422" x2="-393.368" y1="807.036" y2="611.741" class="J" gradientUnits="userSpaceOnUse"><stop stop-color="#fff"/><stop offset="1"/></linearGradient><linearGradient id="K" x1="443.165" x2="427.309" y1="592.913" y2="766.811" class="K" gradientUnits="userSpaceOnUse"><stop stop-color="#FBD44E"/><stop offset="1" stop-color="#FF8500"/></linearGradient><linearGradient id="L" x1="389.052" x2="400.692" y1="905.079" y2="645.189" class="L" gradientUnits="userSpaceOnUse"><stop stop-color="#FBD44E"/><stop offset="1" stop-color="#FF8500"/></linearGradient><linearGradient id="M" x1="699.651" x2="516.57" y1="-130.602" y2="488.287" class="M" gradientUnits="userSpaceOnUse"><stop stop-color="#C8A182"/><stop offset="1" stop-color="#452811"/></linearGradient><linearGradient id="N" x1="624.075" x2="553.401" y1="350.128" y2="589.055" class="N" gradientUnits="userSpaceOnUse"><stop stop-color="#FD5C72"/><stop offset="1" stop-color="#FDC6AA"/></linearGradient><linearGradient id="O" x1="575.008" x2="587.85" y1="418.713" y2="608.977" class="O" gradientUnits="userSpaceOnUse"><stop stop-color="#FD5C72"/><stop offset="1" stop-color="#FDC6AA"/></linearGradient><linearGradient id="P" x1="307.988" x2="673.175" y1="35.039" y2="510.407" class="P" gradientUnits="userSpaceOnUse"><stop stop-color="#FD5C72"/><stop offset="1" stop-color="#FDC6AA"/></linearGradient><linearGradient id="Q" x1="469.08" x2="545.144" y1="429.203" y2="427.991" class="Q" gradientUnits="userSpaceOnUse"><stop stop-color="#FD5C72"/><stop offset="1" stop-color="#FDC6AA"/></linearGradient><linearGradient id="R" x1="563.812" x2="550.932" y1="188.04" y2="503.6" class="R" gradientUnits="userSpaceOnUse"><stop stop-color="#FDC6AA"/><stop offset="1" stop-color="#FD5C72"/></linearGradient><linearGradient id="S" x1="644.442" x2="644.122" y1="446.669" y2="539.309" class="S" gradientUnits="userSpaceOnUse"><stop stop-color="#FDC6AA"/><stop offset="1" stop-color="#FD5C72"/></linearGradient><linearGradient id="T" x1="637.542" x2="692.352" y1="1556.75" y2="1388.65" class="T" gradientUnits="userSpaceOnUse"><stop stop-color="#FDC6AA"/><stop offset="1" stop-color="#FD5C72"/></linearGradient><linearGradient id="U" x1="634.372" x2="720.472" y1="1776.61" y2="1327.38" class="U" gradientUnits="userSpaceOnUse"><stop stop-color="#ACED77"/><stop offset="1" stop-color="#349D7A"/></linearGradient><linearGradient id="V" x1="425.762" x2="1003.24" y1="1123.39" y2="1133.99" class="V" gradientUnits="userSpaceOnUse"><stop stop-color="#349D7A"/><stop offset="1" stop-color="#ACED77"/></linearGradient><linearGradient id="W" x1="770.972" x2="456.962" y1="584.489" y2="562.099" class="W" gradientUnits="userSpaceOnUse"><stop stop-color="#FBD44E"/><stop offset="1" stop-color="#FF8500"/></linearGradient><linearGradient id="X" x1="593.772" x2="555.852" y1="583.929" y2="918.839" class="X" gradientUnits="userSpaceOnUse"><stop stop-color="#FBD44E"/><stop offset="1" stop-color="#FF8500"/></linearGradient><linearGradient id="Y" x1="661.492" x2="662.412" y1="673.35" y2="1253.28" class="Y" gradientUnits="userSpaceOnUse"><stop stop-color="#FF8500"/><stop offset="1" stop-color="#FBD44E"/></linearGradient><linearGradient id="Z" x1="506.032" x2="767.892" y1="1844.97" y2="1498.76" class="Z" gradientUnits="userSpaceOnUse"><stop stop-color="#452811"/><stop offset="1" stop-color="#C8A182"/></linearGradient><linearGradient id="aa" x1="649.142" x2="758.882" y1="1807.04" y2="1681.41" class="aa" gradientUnits="userSpaceOnUse"><stop stop-color="#C7A35F"/><stop offset=".5" stop-color="#ECDBA9"/><stop offset="1" stop-color="#FAF3EB"/></linearGradient><linearGradient id="ab" x1="217.242" x2="742.292" y1="1651.74" y2="1651.74" class="ab" gradientUnits="userSpaceOnUse"><stop stop-color="#452811"/><stop offset="1" stop-color="#C8A182"/></linearGradient><linearGradient id="ac" x1="597.582" x2="453.862" y1="1654.43" y2="1132.45" class="ac" gradientUnits="userSpaceOnUse"><stop stop-color="#452811"/><stop offset="1" stop-color="#C8A182"/></linearGradient><linearGradient id="ad" x1="670.342" x2="691.662" y1="1604.02" y2="1604.02" class="ad" gradientUnits="userSpaceOnUse"><stop stop-color="#C7A35F"/><stop offset=".5" stop-color="#ECDBA9"/><stop offset="1" stop-color="#FAF3EB"/></linearGradient><linearGradient id="ae" x1="685.602" x2="701.772" y1="1638.13" y2="1638.13" class="ae" gradientUnits="userSpaceOnUse"><stop stop-color="#C7A35F"/><stop offset=".5" stop-color="#ECDBA9"/><stop offset="1" stop-color="#FAF3EB"/></linearGradient><linearGradient id="af" x1="1086.04" x2="1016.81" y1="1584.14" y2="1424.93" class="af" gradientUnits="userSpaceOnUse"><stop stop-color="#FDC6AA"/><stop offset="1" stop-color="#FD5C72"/></linearGradient><linearGradient id="ag" x1="1165.5" x2="1176.92" y1="1854.03" y2="1352.49" class="ag" gradientUnits="userSpaceOnUse"><stop stop-color="#452811"/><stop offset="1" stop-color="#C8A182"/></linearGradient><linearGradient id="ah" x1="1313.65" x2="1225.88" y1="1632.44" y2="1846.62" class="ah" gradientUnits="userSpaceOnUse"><stop stop-color="#FAF3EB"/><stop offset=".5" stop-color="#ECDBA9"/><stop offset="1" stop-color="#C7A35F"/></linearGradient><linearGradient id="ai" x1="617.052" x2="1276.48" y1="1699.34" y2="1721.59" class="ai" gradientUnits="userSpaceOnUse"><stop stop-color="#452811"/><stop offset="1" stop-color="#C8A182"/></linearGradient><linearGradient id="aj" x1="1151.95" x2="1191.64" y1="1612.78" y2="1612.78" class="aj" gradientUnits="userSpaceOnUse"><stop stop-color="#C7A35F"/><stop offset=".5" stop-color="#ECDBA9"/><stop offset="1" stop-color="#FAF3EB"/></linearGradient><linearGradient id="ak" x1="1185.94" x2="1218.42" y1="1637.11" y2="1637.11" class="ak" gradientUnits="userSpaceOnUse"><stop stop-color="#C7A35F"/><stop offset=".5" stop-color="#ECDBA9"/><stop offset="1" stop-color="#FAF3EB"/></linearGradient><linearGradient id="al" x1="690.34" x2="1252.52" y1="680.162" y2="1970.17" class="al" gradientUnits="userSpaceOnUse"><stop stop-color="#ACED77"/><stop offset="1" stop-color="#349D7A"/></linearGradient><linearGradient id="am" x1="1168.89" x2="-771.861" y1="441.347" y2="2324.09" class="am" gradientUnits="userSpaceOnUse"><stop stop-color="#FDC6AA"/><stop offset="1" stop-color="#FD5C72"/></linearGradient><linearGradient id="an" x1="1130.56" x2="1111.48" y1="498.956" y2="386.975" class="an" gradientUnits="userSpaceOnUse"><stop stop-color="#FDC6AA"/><stop offset="1" stop-color="#FD5C72"/></linearGradient><linearGradient id="ao" x1="1108.23" x2="1128.95" y1="478.971" y2="348.281" class="ao" gradientUnits="userSpaceOnUse"><stop stop-color="#FDC6AA"/><stop offset="1" stop-color="#FD5C72"/></linearGradient><linearGradient id="ap" x1="948.542" x2="949.392" y1="524.039" y2="1060.23" class="ap" gradientUnits="userSpaceOnUse"><stop stop-color="#FDC6AA"/><stop offset="1" stop-color="#FD5C72"/></linearGradient><linearGradient id="aq" x1="511.282" x2="1009.91" y1="791.799" y2="638.389" class="aq" gradientUnits="userSpaceOnUse"><stop stop-color="#FD5C72"/><stop offset="1" stop-color="#FDC6AA"/></linearGradient><linearGradient id="ar" x1="762.636" x2="586.933" y1="599.717" y2="1119.38" class="ar" gradientUnits="userSpaceOnUse"><stop stop-color="#FBD44E"/><stop offset="1" stop-color="#FF8500"/></linearGradient><linearGradient id="as" x1="641.399" x2="637.483" y1="394.393" y2="349.805" class="as" gradientUnits="userSpaceOnUse"><stop stop-color="#452811"/><stop offset="1" stop-color="#C8A182"/></linearGradient><linearGradient id="at" x1="652.135" x2="645.245" y1="427.581" y2="349.153" class="at" gradientUnits="userSpaceOnUse"><stop stop-color="#452811"/><stop offset="1" stop-color="#C8A182"/></linearGradient><linearGradient id="au" x1="698.245" x2="362.745" y1="1409.03" y2="-320.511" class="au" gradientUnits="userSpaceOnUse"><stop stop-color="#072088"/><stop offset="1" stop-color="#6CC7FC"/></linearGradient><linearGradient id="av" x1="227.945" x2="210.555" y1="1414.31" y2="429.109" class="av" gradientUnits="userSpaceOnUse"><stop stop-color="#072088"/><stop offset="1" stop-color="#6CC7FC"/></linearGradient><linearGradient id="aw" x1="608.275" x2="607.885" y1="1606.25" y2="1294.32" class="aw" gradientUnits="userSpaceOnUse"><stop stop-color="#6CC7FC"/><stop offset="1" stop-color="#072088"/></linearGradient><linearGradient id="ax" x1="678.405" x2="484.345" y1="1252.53" y2="1366.96" class="ax" gradientUnits="userSpaceOnUse"><stop stop-color="#69D4D9"/><stop offset="1" stop-color="#fff"/></linearGradient><linearGradient id="ay" x1="649.765" x2="512.625" y1="1696.88" y2="1450.47" class="ay" gradientUnits="userSpaceOnUse"><stop stop-color="#69D4D9"/><stop offset="1" stop-color="#fff"/></linearGradient><linearGradient id="az" x1="388.675" x2="354.325" y1="1745.12" y2="1568.03" class="az" gradientUnits="userSpaceOnUse"><stop stop-color="#836961"/><stop offset=".5" stop-color="#5C371F"/><stop offset="1" stop-color="#452811"/></linearGradient><linearGradient id="aA" x1="392.955" x2="387.455" y1="1588.62" y2="1714.51" class="aA" gradientUnits="userSpaceOnUse"><stop stop-color="#69D4D9"/><stop offset="1" stop-color="#fff"/></linearGradient><linearGradient id="aB" x1="838.565" x2="872.915" y1="1745.12" y2="1568.03" class="aB" gradientUnits="userSpaceOnUse"><stop stop-color="#836961"/><stop offset=".5" stop-color="#5C371F"/><stop offset="1" stop-color="#452811"/></linearGradient><linearGradient id="aC" x1="843.175" x2="831.675" y1="1756.04" y2="1621.07" class="aC" gradientUnits="userSpaceOnUse"><stop stop-color="#fff"/><stop offset="1" stop-color="#69D4D9"/></linearGradient><linearGradient id="aD" x1="613.455" x2="579.105" y1="1745.12" y2="1568.03" class="aD" gradientUnits="userSpaceOnUse"><stop stop-color="#836961"/><stop offset=".5" stop-color="#5C371F"/><stop offset="1" stop-color="#452811"/></linearGradient><linearGradient id="aE" x1="612.065" x2="612.455" y1="1722" y2="1622.14" class="aE" gradientUnits="userSpaceOnUse"><stop stop-color="#fff"/><stop offset="1" stop-color="#69D4D9"/></linearGradient><linearGradient id="aF" x1="1775.29" x2="1725.77" y1="1444.38" y2="821.78" class="aF" gradientUnits="userSpaceOnUse"><stop stop-color="#6CC7FC"/><stop offset="1" stop-color="#072088"/></linearGradient><linearGradient id="aG" x1="1581" x2="1639.04" y1="1109.5" y2="701.77" class="aG" gradientUnits="userSpaceOnUse"><stop stop-color="#6CC7FC"/><stop offset="1" stop-color="#072088"/></linearGradient><linearGradient id="aH" x1="1672.13" x2="1887.76" y1="790.24" y2="786.69" class="aH" gradientUnits="userSpaceOnUse"><stop stop-color="#FF8500"/><stop offset="1" stop-color="#FBD44E"/></linearGradient></defs></svg>