<svg xmlns="http://www.w3.org/2000/svg" version="1.1" id="Layer_1" x="0" y="0" viewBox="0 0 3000 3000" style="enable-background:new 0 0 3000 3000" xml:space="preserve"><style>.st0{fill:#c8d9fb}.st1{fill:#f2faff}.st2{fill:#5ca88d}.st3{fill:#7ac094}.st4{opacity:.2;fill:#f2faff}.st5{opacity:.15;fill:#202234}.st6{fill:#b8debf}.st7{fill:#394ca4}.st8{fill:#100959}.st9{opacity:.5;fill:#f2faff}.st10{fill:#4094f2}.st11{opacity:.25;fill:#f2faff}.st12{fill:#383b4b}.st15{fill:#eab213}.st16{fill:#eddaab}.st17{opacity:.49;fill:#f2faff}.st18{opacity:.25;fill:#c8d9fb}.st19{fill:#517ce8}.st23{fill:#33143f}.st24{fill:#0f1019}.st25{fill:#ddae9f}.st26{opacity:.2;fill:#fff}.st27{fill:#f5b297}.st28,.st29{fill:#f39683}.st29{opacity:.61}.st30{fill:#202234}.st31{opacity:.4;fill:#383b4b}.st33{opacity:.05;fill:#33133f}.st36{fill:#5681f1}.st39{fill:#fff}</style><ellipse class="st0" cx="1521.07" cy="2461.67" rx="737.34" ry="173.36"/><path class="st1" d="M2773.98 2446.23H381.46s-414.17-414.17-116.12-774.15C563.39 1312.09 4.67 983.93 368.53 569.76s1770.18-348.35 1556.9 575.84c-309.41 1340.76 1305.3.05 848.55 1300.63z"/><path class="st1" d="M2671.59 1514.22c-58.3-87.25-166.45-127.82-235.15-207.14-103.88-121.9-155.05-362.12-343.49-369.51-276.64 74.67-105.77 462.82-4.02 627.35 175.29 263.72 347.35 111.24 558.37 205.61 156.52 70 71.51-197.29 24.29-256.31z"/><path class="st0" d="M2515.77 1606.6c0 19.7-15.97 35.67-35.67 35.67-19.7 0-35.67-15.97-35.67-35.67 0-19.7 15.97-35.67 35.67-35.67 19.7.01 35.67 15.98 35.67 35.67zM505.14 1461.64c0 11.98-9.71 21.69-21.69 21.69s-21.69-9.71-21.69-21.69 9.71-21.69 21.69-21.69 21.69 9.71 21.69 21.69z"/><path class="st2" d="M2265.25 2295.13h9.8l-1.55 66h-8.25z"/><path class="st3" d="M2357.13 2261.18c3.69-3.21 104.37-94.89 92.51-209.94s-107.94-143.52-80.65-277.54c27.28-134.03 0-226.54-83.03-227.73-83.02-1.19-120.98 79.47-90.14 222.98 30.84 143.52-101.28 199.65-94.89 304.82 7.37 121.24 103.2 320.25 256.2 187.41z"/><path class="st4" d="M2228.47 1563.91c1.43 6.38 5.19 12.69 11.34 15.44 5.67 2.54 12.2 2.02 18.16.98 11.04-1.94 22.2-6.08 33.55-4.59 5.71.75 11.14 3.26 16.25 5.79a96.305 96.305 0 0 1 15.94 9.97c9.53 7.33 17.79 16.48 23.49 27.11 6.49 12.11 8.74 25.46 9.12 39.08.44 15.71-1.01 31.45 1.83 47.02 1.89 10.36 5.09 21.71 12.34 29.67 1.39 1.53 2.95 2.76 4.58 3.84 15.77-114.6-13.63-191.16-89.1-192.24-22.78-.33-42.1 5.61-57.6 17.23.04.23.04.45.1.7z"/><path class="st5" d="M2289.49 2026.15c-11.54-21.24-11.69-47.62-5.34-70.44 3.4-12.23 8.6-23.92 14.58-35.09 2.41-4.51 5.39-8.78 7.59-13.4 1.58-3.33 1.27-6.25-.02-9.65-2.22-5.88-5.38-11.48-7.87-17.27-2.51-5.83-4.92-11.71-6.97-17.72-4.28-12.5-6.01-25.16-7.01-38.28-.99-12.95-.51-26.35 3.62-38.77 3.69-11.08 11.67-20.04 15.71-30.88-6.6-4.03-12.33-9.24-17.08-15.36-5.47-7.07-9.72-14.93-13.07-23.25-.03 18.36-.03 36.71-.08 55.07-.19 73.16-.49 146.31-.67 219.47-.16 65.19-.14 130.38-.14 195.57 1.35-4.69 2.81-9.35 4.44-13.95 14.68-41.33 39.15-78.01 62.87-114.58-21.29.81-40.44-12.84-50.56-31.47z"/><path class="st5" d="M2301.72 2296.5c-11.65.13-23.41-1.83-33.86-7.14-11.03-5.62-19.7-14.87-25.8-25.54-3.76-6.58-5.99-13.1-7.27-20.55-1.37-8.01-2.81-15.56-8.07-22.02-9.17-11.26-24.83-12.82-37.39-18.5-11.77-5.33-20.79-15.45-27.77-26.1-7.01-10.68-11.95-22.7-15.35-34.98-7.2-26.02-7.98-53.82-4.65-80.5 3.08-24.69 9.59-49.15 21.83-70.94 14.59-25.97 33.78-49.14 47.44-75.64 6.7-12.99 11.69-26.85 13.87-41.34 2.59-17.27.97-34.68-2.96-51.61-4.35-18.69-11.26-36.64-18.38-54.42-6.63-16.57-12.3-33.31-16.09-50.75 1.74 16.43 4.55 33.93 8.55 52.5 30.84 143.52-101.27 199.65-94.89 304.82 6.43 105.88 80.34 271.07 200.89 222.71-.03-.01-.06 0-.1 0z"/><path class="st6" d="M2378.79 2025.78c-.49-.49-1.28-.49-1.76 0l-105.18 105.18v-178.85l58.61-61.91c.47-.5.45-1.29-.05-1.76s-1.29-.45-1.76.05l-56.8 59.99v-160.92l42.58-43.23c.48-.49.48-1.28-.01-1.76-.49-.49-1.28-.48-1.76.01l-40.81 41.42v-138.4a1.25 1.25 0 0 0-2.5 0v193l-32.39-27.6a1.25 1.25 0 0 0-1.76.14c-.45.52-.38 1.31.14 1.76l34.01 28.98v181.76l-64.18-64.18c-.49-.49-1.28-.49-1.76 0-.49.49-.49 1.28 0 1.76l65.94 65.94v274.36a1.25 1.25 0 0 0 2.5 0v-167.04l106.95-106.95c.48-.48.48-1.27-.01-1.75z"/><path class="st2" d="M419.41 2205.64h6.77l-1.07 45.63h-5.7z"/><path class="st3" d="M482.94 2182.16c2.55-2.22 72.17-65.61 63.97-145.16-8.2-79.55-74.63-99.23-55.77-191.91 18.86-92.67 0-156.64-57.41-157.46-57.41-.82-83.65 54.95-62.33 154.18 21.32 99.23-70.03 138.05-65.61 210.77 5.09 83.83 71.35 221.44 177.15 129.58z"/><path class="st4" d="M393.97 1700.03c.99 4.41 3.59 8.78 7.84 10.68 3.92 1.76 8.43 1.4 12.56.68 7.63-1.34 15.35-4.2 23.2-3.18 3.95.52 7.7 2.25 11.24 4a67.14 67.14 0 0 1 11.02 6.89c6.59 5.07 12.3 11.39 16.24 18.74 4.49 8.37 6.04 17.61 6.31 27.02.31 10.86-.7 21.75 1.26 32.51 1.31 7.16 3.52 15.01 8.53 20.51.96 1.06 2.04 1.91 3.16 2.65 10.9-79.24-9.42-132.18-61.61-132.92-15.75-.22-29.11 3.88-39.83 11.91.04.19.05.34.08.51z"/><path class="st5" d="M436.17 2019.65c-7.98-14.69-8.08-32.93-3.69-48.7 2.35-8.45 5.95-16.54 10.08-24.26 1.67-3.12 3.73-6.07 5.25-9.26 1.09-2.3.88-4.32-.01-6.67-1.54-4.06-3.72-7.94-5.44-11.94-1.73-4.03-3.4-8.1-4.82-12.25-2.96-8.65-4.15-17.39-4.85-26.47-.68-8.95-.35-18.22 2.5-26.81 2.55-7.66 8.07-13.85 10.86-21.35-4.56-2.79-8.53-6.39-11.81-10.62-3.79-4.89-6.72-10.32-9.04-16.07-.02 12.69-.02 25.39-.06 38.08-.13 50.58-.34 101.17-.46 151.75-.11 45.08-.1 90.15-.1 135.23.94-3.24 1.94-6.46 3.07-9.65 10.15-28.57 27.07-53.94 43.47-79.23-14.71.54-27.95-8.9-34.95-21.78z"/><path class="st5" d="M444.63 2206.58c-8.05.09-16.19-1.27-23.42-4.94-7.63-3.88-13.62-10.28-17.84-17.66-2.6-4.55-4.14-9.05-5.03-14.21-.95-5.54-1.94-10.76-5.58-15.23-6.34-7.78-17.17-8.86-25.85-12.79-8.14-3.69-14.38-10.68-19.2-18.04-4.84-7.39-8.26-15.69-10.62-24.19-4.98-17.99-5.51-37.21-3.21-55.67 2.13-17.07 6.63-33.98 15.1-49.05 10.09-17.95 23.36-33.98 32.8-52.3 4.63-8.99 8.08-18.57 9.59-28.59 1.79-11.94.67-23.98-2.05-35.69-3-12.93-7.79-25.33-12.7-37.63-4.58-11.46-8.51-23.03-11.13-35.09 1.2 11.36 3.15 23.46 5.91 36.3 21.32 99.23-70.03 138.05-65.61 210.77 4.45 73.21 55.55 187.43 138.91 154-.03.01-.05.01-.07.01z"/><path class="st6" d="M497.92 2019.39a.857.857 0 0 0-1.22 0l-72.73 72.73v-123.66l40.53-42.81c.33-.34.31-.89-.03-1.22a.866.866 0 0 0-1.22.03l-39.28 41.48v-111.27l29.44-29.89c.33-.34.33-.89-.01-1.22a.857.857 0 0 0-1.22.01l-28.22 28.64v-95.7a.86.86 0 0 0-.86-.86c-.48 0-.86.38-.86.86v133.45l-22.4-19.08a.86.86 0 0 0-1.22.1.86.86 0 0 0 .1 1.22l23.52 20.04v125.68l-44.38-44.38a.857.857 0 0 0-1.22 0c-.34.34-.34.88 0 1.22l45.6 45.6V2210.07c0 .48.38.86.86.86s.86-.39.86-.86v-115.5l73.95-73.95c.34-.35.34-.89.01-1.23z"/><path class="st2" d="M666.76 2160.29h10.01l-1.58 67.42h-8.43z"/><path class="st3" d="M760.62 2125.61c3.77-3.28 106.62-96.93 94.5-214.45-12.12-117.52-110.26-146.6-82.39-283.51 27.87-136.91 0-231.42-84.81-232.63-84.81-1.21-123.58 81.18-92.08 227.78s-103.45 203.94-96.93 311.38c7.53 123.84 105.41 327.13 261.71 191.43z"/><path class="st4" d="M629.19 1413.34c1.47 6.52 5.3 12.97 11.59 15.78 5.8 2.59 12.46 2.06 18.55 1 11.27-1.98 22.68-6.21 34.27-4.69 5.83.76 11.38 3.33 16.6 5.91a98.65 98.65 0 0 1 16.28 10.18c9.74 7.48 18.18 16.83 24 27.69 6.63 12.37 8.93 26.01 9.32 39.92.45 16.05-1.03 32.13 1.87 48.03 1.93 10.58 5.19 22.18 12.61 30.31 1.43 1.56 3.01 2.82 4.67 3.92 16.11-117.06-13.92-195.27-91.02-196.37-23.27-.33-43.01 5.73-58.84 17.6.03.24.04.47.1.72z"/><path class="st5" d="M691.53 1885.53c-11.78-21.7-11.94-48.65-5.46-71.95 3.47-12.49 8.79-24.43 14.89-35.84 2.46-4.61 5.51-8.97 7.75-13.69 1.62-3.41 1.3-6.39-.02-9.86-2.27-6.01-5.5-11.73-8.04-17.64-2.56-5.96-5.02-11.96-7.12-18.1-4.37-12.77-6.14-25.7-7.16-39.1-1.01-13.23-.52-26.92 3.7-39.6 3.77-11.32 11.93-20.47 16.04-31.54-6.74-4.12-12.6-9.44-17.45-15.69-5.59-7.22-9.93-15.25-13.35-23.75-.03 18.75-.03 37.5-.08 56.25-.19 74.73-.5 149.46-.68 224.19-.17 66.59-.15 133.18-.15 199.78 1.38-4.79 2.86-9.55 4.53-14.25 14.99-42.21 40-79.69 64.23-117.05-21.74.8-41.3-13.13-51.63-32.16z"/><path class="st5" d="M704.02 2161.69c-11.9.13-23.91-1.87-34.59-7.3-11.27-5.73-20.12-15.19-26.35-26.09-3.85-6.72-6.12-13.38-7.43-20.99-1.4-8.18-2.86-15.9-8.24-22.49-9.37-11.5-25.37-13.09-38.19-18.9-12.02-5.45-21.24-15.78-28.37-26.66-7.16-10.92-12.21-23.19-15.68-35.74-7.35-26.58-8.15-54.98-4.75-82.24 3.15-25.22 9.79-50.21 22.3-72.46 14.91-26.52 34.51-50.2 48.46-77.27 6.84-13.28 11.94-27.42 14.17-42.23 2.65-17.65.99-35.43-3.03-52.72-4.44-19.1-11.5-37.43-18.77-55.59-6.77-16.93-12.57-34.02-16.44-51.84 1.78 16.78 4.65 34.66 8.73 53.63 31.5 146.6-103.45 203.94-96.93 311.38 6.57 108.16 82.07 276.9 205.21 227.5-.03 0-.07.01-.1.01z"/><path class="st6" d="M782.75 1885.14c-.5-.5-1.3-.5-1.8 0L673.5 1992.59v-182.7l59.88-63.24c.48-.51.46-1.32-.05-1.8-.51-.49-1.32-.46-1.8.05l-58.02 61.28V1641.8l43.5-44.15c.49-.5.49-1.31-.01-1.8-.5-.5-1.31-.49-1.8.01l-41.69 42.31v-141.38c0-.7-.57-1.27-1.27-1.27-.71 0-1.27.57-1.27 1.27v197.15l-33.09-28.2c-.54-.45-1.34-.39-1.8.15-.46.53-.4 1.34.14 1.8l34.74 29.6v185.67l-65.56-65.56c-.5-.5-1.3-.5-1.8 0s-.5 1.31 0 1.8l67.36 67.36v280.26c0 .7.57 1.28 1.27 1.28.71 0 1.27-.57 1.27-1.28v-170.63l109.25-109.25c.49-.5.49-1.3 0-1.8z"/><path class="st7" d="M413.45 2289.39s40.48-293.84-40.12-264.84c-80.59 29.01-43.6 146.76 40.12 264.84z"/><path class="st8" d="M418.78 2286.55s-164.82-289.85-278.52-190.18c-113.71 99.67 278.52 190.18 278.52 190.18z"/><path class="st9" d="M146.58 2099.61c3.3 9.05 8.7 16.73 18.46 19.09 12.2 2.96 25.49-.63 37.75-1.32 13.99-.79 27.4 1.29 40.08 7.38 12.25 5.88 22.74 14.78 33.09 23.44 10.38 8.68 20.96 18.12 33.1 24.26 11.52 5.82 25.19 8.31 37.85 10.29h.04c-56.91-69.91-137.37-140.79-202.37-89.93.53 2.29 1.19 4.56 2 6.79z"/><path class="st10" d="M186.86 2446.22h1422.88l-20.41-71.13-48-168.47c-34.01-118.93-152.15-193.35-274.19-172.56l-61.6 10.69c-4.66.78-9.13 1.17-13.61 1.17-27.2 0-53.05-13.6-68.4-36.73-105.71-158.57-344.73-138.94-423.23 34.79l-10.5 23.32c-18.51 41.15-66.84 59.53-108.01 41.1l-61.43-27.5c-35.95-16.13-75.98-4.08-98.13 24.29-8.16 10.3-14 22.73-16.33 36.72l-9.13 53.25c-2.33 13.21-7.39 24.87-14.58 34.59-1.36 1.75-2.72 3.5-4.08 5.05a82.403 82.403 0 0 1-47.8 27.21c-4.66.97-9.71 1.36-14.57 1.36-15.41 0-31.04-4.22-45.22-13.69-31.99-21.35-74.88-16.03-102.08 11.17l-41.28 41.27c-53.17 53.17-15.51 144.1 59.7 144.1z"/><path class="st4" d="M131.17 2332.67c8.33-12.39 13.35-26.83 22.31-38.8 18.52-24.74 52.45-29.72 81.31-24.88 19.41 3.26 37.72 10.21 57.7 8.43 15.58-1.39 31.1-3.85 46.24-7.83 29.73-7.82 59.85-22.39 76.54-49.38 16.6-26.85 8.69-62.41 28.31-87.89 21.1-27.4 57.45-24.83 86.74-14.11 16.42 6 30.97 16.08 47.45 21.74 19.32 6.64 40.08 7.48 59.96 2.93 10.29-2.35 20.25-6 29.71-10.66 5.86-2.89 11.22-6.03 15.36-11.19 6.81-8.49 9.36-19.72 8.97-30.42a54.954 54.954 0 0 0-4.17-19c-19.87 38.06-66.12 54.56-105.81 36.8l-61.43-27.5c-35.95-16.13-75.98-4.08-98.13 24.29-8.16 10.3-14 22.73-16.33 36.72l-9.13 53.25c-2.33 13.21-7.39 24.87-14.58 34.59-1.36 1.75-2.72 3.5-4.08 5.05a82.403 82.403 0 0 1-47.8 27.21c-4.66.97-9.71 1.36-14.57 1.36-15.41 0-31.04-4.22-45.22-13.69-31.99-21.36-74.88-16.03-102.08 11.17l-41.28 41.27c-15 15.01-22.77 33.01-24.51 51.14 11.87-2.63 21.5-10.15 28.52-20.6z"/><path class="st5" d="M681.56 2371.05c37.14-73.05 94.48-132.46 149.73-191.92 6.86-7.38 13.69-14.78 20.47-22.24 6.84-7.52 14.15-14.88 19.2-23.78 1.89-3.33 5.82-10.28 3.35-14.23-1.91-3.07-6.74-1.81-9.51-.88-6.75 2.26-12.51 7.25-17.24 12.42-6.22 6.79-11.76 13.7-19.09 19.4-12.64 9.84-27.49 15.49-42.79 19.77-17.62 4.93-35.38 9.03-52.23 16.34-15.91 6.91-31 15.63-44.04 27.17-25.22 22.32-40.35 52.84-45.43 85.94-2.52 16.43.43 34.21-6.79 49.68-6.59 14.13-20.31 20.82-33.5 27.6-14.16 7.27-28.87 14.09-44.08 18.86-10.5 3.29-24 6.24-34.49 1.42-19.49-8.96-8.26-37.45-2.91-51.82 3.55-9.52 7.84-18.92 10.39-28.78 2.73-10.55.97-25.91-10.56-30.45-16.04-6.32-31.72 7.05-37.15 21.21-5.28 13.78-5.36 29.4-1.54 43.51 2.85 10.53 9.91 27.17-1.82 34.93-14.86 9.83-31.14-1.75-41.17-12.69-11.2-12.23-19.12-25.97-26.96-40.48-7.79-14.42-15.74-29.29-27.97-40.5-11.92-10.93-29.61-18.89-45.98-14.96-13.84 3.32-22.11 15.46-24.28 28.99-1.19 7.42-.64 15.11 1.17 22.37 1.09 4.38 3.12 8.25 5.54 12.03 1.3 2.03 2.64 4.01 3.19 6.39 3.5 15.01-12.6 26.19-20.68 36.23-10.78 13.4-16.57 32.27-19.73 48.91-.92 4.82-1.46 9.77-1.8 14.76h358.98c3.95-6.32 7.79-12.7 11.43-19.18 10.27-18.3 18.8-37.36 28.29-56.02z"/><path class="st11" d="M312.43 2446.22h1297.3l-20.41-71.13c-64.13-57.52-152.74-85.7-242.9-70.15l-48 8.16-25.84 4.28c-5.63.97-11.27 1.36-16.71 1.36-12.05 0-23.9-2.13-34.98-6.41-18.65-7.19-34.98-19.83-46.63-37.31-16.32-24.67-35.56-45.66-56.55-62.96-8.16-6.99-16.51-13.21-25.26-18.85-47.23-31.28-101.44-46.83-155.85-47.41-31.86-.58-63.54 4.08-93.86 13.99-73.65 23.32-138.94 76.37-175.28 157.01l-12.63 27.6c-22.35 49.56-80.45 71.51-129.8 49.36l-37.31-16.71-35.95-16.13c-16.32-7.39-33.43-9.71-49.75-8.16-42.37 4.08-79.67 35.56-87.45 81.22l-2.14 12.24z"/><path class="st8" d="M488.36 2183.97c0 13.97 11.32 25.29 25.29 25.29 13.97 0 25.29-11.32 25.29-25.29 0-13.97-11.32-25.3-25.29-25.3-13.97 0-25.29 11.33-25.29 25.3z"/><path class="st5" d="M494.22 2189.95c0 13.97 11.33 25.29 25.29 25.29 13.97 0 25.29-11.32 25.29-25.29 0-13.97-11.32-25.3-25.29-25.3-13.97.01-25.29 11.33-25.29 25.3z"/><path class="st7" d="M855.14 2377.15c0 13.97 11.32 25.29 25.29 25.29 13.97 0 25.29-11.32 25.29-25.29 0-13.97-11.32-25.3-25.29-25.3-13.97.01-25.29 11.33-25.29 25.3z"/><path class="st5" d="M758.09 2055.65c0 26.92 21.82 48.74 48.74 48.74s48.74-21.82 48.74-48.74-21.82-48.75-48.74-48.75-48.74 21.83-48.74 48.75z"/><path class="st7" d="M764.2 2038.32c0 26.92 21.82 48.74 48.74 48.74s48.74-21.82 48.74-48.74-21.82-48.75-48.74-48.75c-26.92.01-48.74 21.83-48.74 48.75z"/><path class="st8" d="M489.28 2432.92s114.06-143.82 61.99-153.74c-52.07-9.92-69.43 64.47-61.99 153.74z"/><path class="st9" d="M492.94 2344.51c5.32-1.26 8.64-4.98 10.92-9.79 4.58-9.65 4.24-20.95 9.51-30.31 2.65-4.71 6.77-8.32 11.66-10.57 4.83-2.22 10.21-3.34 14.8-6.05 4.44-2.63 5.25-5.82 1.82-9.48-27.24.37-43.33 26.86-50.14 66.45.47-.09.97-.14 1.43-.25z"/><path class="st7" d="M489.28 2432.92s-71.91-193.41-151.25-143.82c-79.35 49.59 151.25 143.82 151.25 143.82z"/><path class="st4" d="M341.26 2287.38c.83 1.86 2.68 3.55 4.11 4.13 3.16 1.29 7.25.79 10.6.72 7.37-.14 14.95-.66 22.23.8 7.83 1.57 15.31 6.1 21.75 10.66 11.84 8.36 19.49 21.39 31.65 29.19 1.96 1.26 4.76 2.65 7.92 3.86-26.68-38.47-61.57-69.32-98.26-49.36z"/><path class="st7" d="M489.28 2432.92s265.32-32.24 198.37-74.39c-66.95-42.16-198.37 74.39-198.37 74.39z"/><path class="st4" d="M577.88 2374.04c7.82-1.43 13.56-6.04 20.21-10 6.29-3.75 13.11-6.78 20.3-8.29 10.18-2.14 20.41.46 30.64-.94 3.57-.49 7.76-1.71 9.11-5.25-26.5-1.64-57.14 9.9-85.01 24.93 1.57-.07 3.16-.16 4.75-.45z"/><path class="st7" d="M2685.17 2339.1s-27.64-200.71 27.41-180.9c55.05 19.81 29.78 100.25-27.41 180.9z"/><path class="st4" d="M2685.37 2191.62c2.81-2.19 3.85-6.13 5.12-9.3 1.48-3.7 3.14-7.31 6.03-10.15 3.56-3.5 8.08-5.39 12.97-6.06 4.71-.65 9.71-.05 14.28-1.53.18-.06.3-.18.48-.25-3.44-2.38-7.2-4.52-11.67-6.14-17.74-6.38-26.87 10.19-31.12 35.52 1.42-.55 2.79-1.21 3.91-2.09z"/><path class="st5" d="M2737.91 2193.04c-.22 14.98-.85 29.72-5.37 44.13-1.89 6.04-4.21 12.12-6.78 17.92-2.02 4.55-4.68 9.17-8.93 11.99-9.19 6.07-20-.14-26.53-7.17-4.02-4.32-7.46-9.77-12.01-13.37.49 46.04 6.88 92.57 6.88 92.57 43.47-61.3 68.25-122.31 53.56-156.82-.75 3.52-.77 7.3-.82 10.75z"/><path class="st8" d="M2681.54 2337.16s112.58-197.98 190.25-129.9c77.66 68.07-190.25 129.9-190.25 129.9z"/><path class="st4" d="M2756.39 2238.37c3.12.45 6.38.68 9.53.62.2 0 .39-.01.59-.01-.29-.08 2.73-.6 3.18-.75 3.14-1.1 5.75-2.96 8.18-5.19 4.75-4.36 8.7-9.31 14.34-12.6 12.47-7.29 27.72-8.62 41.62-11.39 6.15-1.22 16.7-1.7 19.24-8.63.52-1.43.52-2.83.25-4.18-31.89-11.62-67.3 11.31-97.67 41.98.25.04.48.12.74.15z"/><path class="st5" d="M2869 2258.07c-10.43 6.94-22.03 10.79-34.56 10.99-6.53.11-13.28-.45-19.71 1-6.45 1.46-11.12 4.94-15.45 9.79-8.08 9.06-15.6 17.04-27.02 21.82-11.91 4.99-25 5.83-37.77 5.47-5.19-.15-10.18-.79-15.33-1.33-3.93-.41-9.12-1.17-12.77.84-4.72 2.59-4.7 10.64-3.87 15.21.59 3.23 1.83 6.3 3.56 9.06 53.8-14.5 177.57-52.63 179.77-97.03-3.67 9.59-7.58 18.01-16.85 24.18z"/><path class="st10" d="M2839.95 2446.22h-971.91l13.94-48.58 32.79-115.08c23.23-81.23 103.93-132.07 187.28-117.87l42.08 7.3c3.18.53 6.24.8 9.29.8 18.58 0 36.24-9.29 46.72-25.09 72.21-108.31 235.47-94.9 289.09 23.76l7.17 15.93c12.64 28.1 45.65 40.66 73.78 28.07l41.96-18.78c24.56-11.01 51.9-2.79 67.03 16.59 5.58 7.03 9.56 15.53 11.15 25.08l6.24 36.37c1.59 9.02 5.04 16.99 9.96 23.63.93 1.2 1.86 2.39 2.79 3.45a56.275 56.275 0 0 0 32.65 18.59c3.18.66 6.63.93 9.96.93 10.53 0 21.2-2.89 30.89-9.35 21.85-14.59 51.15-10.95 69.72 7.63l28.2 28.19c36.32 36.32 10.59 98.43-40.78 98.43z"/><path class="st5" d="M2772.85 2414.68c-6.01-18.47-28.72-35.97-48.81-31.52-2.42.54-4.45-.73-5.28-3-4.58-12.58 1.04-32.72-12.72-40.45-10.44-5.88-25.56-2.33-34.9 4.16-24.25 16.87-23.67 48.29-28.19 74.52-.54 3.11-5.16 4.21-7.17 1.89-5.19-6-8.67-13.83-12.67-20.62-5.57-9.46-11.3-18.92-17.97-27.66-4.19-5.48-10.7-14.77-18.15-15.99-9.59-1.58-8.91 15.6-7.66 21.31 3.08 14.1 11.02 26.46 14.7 40.32.57 2.14-.71 4.78-3 5.28-6.03 1.31-11.3-.96-16.23-4.34-6.18-4.25-10.8-8.22-18.33-9.93-10.54-2.4-27.65-2.35-33.66-13.42-2.13-3.92-1.52-8.84-1.42-13.11.19-8.34 1.02-16.65 1.07-25 .1-16.36-3.61-31.93-11.4-46.33-12.55-23.19-32.67-43.2-53.59-58.98-20.73-15.63-44.28-27.8-69.5-34.22-48.03-12.24-103.06-1.05-133.64 40.36-13.37 18.11-21.25 39.75-24.66 61.89-3.99 25.87-.87 52.49 2.25 78.29 1.95 16.14 4.62 32.23 8.15 48.13h529.26c5.36-9.22 7.27-20.04 3.52-31.58z"/><path class="st4" d="M2353.97 2109.36c13.31 7.83 29.46 9.29 44.17 13.03 12.72 3.23 24.48 8.45 34.57 16.95 15.39 12.96 24.26 31.41 34.54 48.28 12.34 20.24 29.3 40.15 52.78 47.3 25.87 7.88 47.97-10.67 72.82-14.35 19.87-2.94 40.17-.18 57.48 10.43 17.43 10.7 30.24 27.53 39.73 45.38 9.24 17.38 18.5 34.76 37.17 43.45 24.08 11.21 51.2 8.31 74.87-2.19 8.28-3.67 15.58-8.13 22.79-13.09-14.17-3.2-29.37-1.05-42.08 7.43-9.69 6.47-20.36 9.35-30.89 9.35-3.32 0-6.77-.27-9.96-.93a56.221 56.221 0 0 1-32.65-18.59c-.93-1.06-1.86-2.25-2.79-3.45-4.91-6.64-8.36-14.6-9.96-23.63l-6.24-36.37c-1.59-9.56-5.57-18.05-11.15-25.08-15.13-19.38-42.47-27.61-67.03-16.59l-41.96 18.78c-28.13 12.59-61.14.03-73.78-28.07l-7.17-15.93c-31.05-68.7-98.84-102.04-164.44-96.98 7.29 13.76 15.58 26.86 29.18 34.87z"/><path class="st11" d="M2754.17 2446.22h-886.13l13.94-48.58c43.8-39.29 104.33-58.53 165.92-47.92l32.78 5.57 17.65 2.92c3.85.66 7.7.93 11.42.93 8.23 0 16.33-1.46 23.89-4.38 12.74-4.91 23.89-13.54 31.85-25.49 11.15-16.85 24.29-31.19 38.63-43 5.57-4.78 11.28-9.02 17.25-12.88 32.26-21.37 69.28-31.99 106.46-32.39 21.76-.4 43.4 2.79 64.11 9.55 50.31 15.93 94.9 52.17 119.72 107.25l8.63 18.85c15.26 33.85 54.95 48.85 88.66 33.71l25.49-11.41 24.55-11.02c11.15-5.05 22.83-6.64 33.98-5.57 28.94 2.78 54.42 24.29 59.73 55.48l1.47 8.38z"/><path class="st7" d="M2634.01 2267.09c0 9.54-7.74 17.28-17.28 17.28-9.54 0-17.28-7.73-17.28-17.28 0-9.54 7.73-17.28 17.28-17.28 9.54 0 17.28 7.74 17.28 17.28z"/><circle class="st8" cx="2402.47" cy="2324.9" r="17.28"/><path class="st5" d="M2387.08 2157.1c0 18.39-14.91 33.29-33.29 33.29-18.39 0-33.3-14.91-33.3-33.29 0-18.39 14.91-33.3 33.3-33.3 18.38 0 33.29 14.91 33.29 33.3z"/><path class="st8" d="M2384.79 2149.2c0 18.39-14.91 33.29-33.29 33.29-18.39 0-33.3-14.91-33.3-33.29 0-18.39 14.91-33.3 33.3-33.3 18.38.01 33.29 14.92 33.29 33.3zM2633.38 2437.13s-77.91-98.23-42.35-105.01c35.57-6.77 47.43 44.04 42.35 105.01z"/><path class="st4" d="M2587.21 2345.52c3.54-1.2 6.83-2.26 10.58-2.59 7.46-.66 16 .85 22.16 5.29 2.42 1.74 4.01 3.88 5.56 6.21-7-16.4-18.24-25.4-34.48-22.3-7.47 1.42-9.89 6.91-9.12 14.64 1.8 0 3.91-.78 5.3-1.25z"/><path class="st5" d="M2616.92 2405.05c-3.24-.71-6.38-2.14-9.34-3.93 12.9 19.75 25.8 36.01 25.8 36.01 1.07-12.83 1.37-25.18.87-36.66-4.41 5.08-11 5.97-17.33 4.58z"/><path class="st7" d="M2633.38 2437.13s49.12-132.11 103.31-98.23c54.2 33.87-103.31 98.23-103.31 98.23z"/><path class="st4" d="M2671.79 2374.08c4.06-3.61 6.5-8.56 10.76-12.03 4.58-3.73 9.91-6.02 15.33-8.22 5.18-2.1 11.21-3.96 14.42-8.88 1.92-2.94 2.79-7.69 1.25-11.14-19.05 2.96-36.54 22.44-50.29 43.77 3.11-.46 6.13-1.37 8.53-3.5z"/><path class="st5" d="M2699.41 2394.54c-6.95 1.07-16.52 1.22-22.37 5.5-2.95 2.16-4.85 5.44-7.89 7.56-2.93 2.05-6.4 3.19-9.86 4-5.25 1.25-10.45 1.58-15.21.75-6.8 14.28-10.71 24.77-10.71 24.77s53.07-21.71 87-46.54c-6.91 1.91-14.17 2.91-20.96 3.96z"/><path class="st7" d="M2633.38 2437.13s-181.23-22.02-135.5-50.81c45.73-28.79 135.5 50.81 135.5 50.81z"/><path class="st4" d="M2511.46 2396.49c8.67.68 16.99-2.63 25.52-3.5 11.76-1.2 21.59 2.21 32.61 5.57 4.43 1.35 9.1 2.49 13.79 2.73-27.82-16.2-61.33-28.98-84.34-15.59-.22 5.21 6.39 10.32 12.42 10.79z"/><path class="st5" d="M2581.27 2426.9c-5.5-.34-11.02-.69-16.43-1.79-5.64-1.14-11.12-2.93-16.74-4.14-3.49-.75-7.03-1.06-10.56-1.13 41.63 10.69 95.84 17.29 95.84 17.29s-8.43-7.43-21.32-16.89c-.46.82-1.04 1.61-1.79 2.32-3.28 3.15-8.56 3.72-12.86 4.21-5.36.61-10.77.46-16.14.13z"/><path class="st12" d="M2107.92 1005.82c-9.17 0-16.61 7.44-16.61 16.61v288.87c0 9.17 7.44 16.61 16.61 16.61 9.18 0 16.61-7.44 16.61-16.61v-288.87c0-9.17-7.44-16.61-16.61-16.61zM930.15 799.25c-9.17 0-16.61 7.44-16.61 16.61v70.16c0 9.18 7.44 16.61 16.61 16.61 9.17 0 16.61-7.44 16.61-16.61v-70.16c.01-9.18-7.43-16.61-16.61-16.61zM942.43 960.44c-15.96 0-28.89 12.93-28.89 28.89v122.03c0 15.96 12.94 28.89 28.89 28.89 15.96 0 28.89-12.94 28.89-28.89V989.34c0-15.96-12.93-28.9-28.89-28.9z"/><path class="st12" d="M942.43 1136.56c-15.96 0-28.89 12.94-28.89 28.89v122.03c0 15.96 12.94 28.89 28.89 28.89 15.96 0 28.89-12.94 28.89-28.89v-122.03c0-15.95-12.93-28.89-28.89-28.89z"/><path class="st7" d="M2114.92 647.14V2450.1H924.4V647.14c0-100.06 81.22-181.28 181.28-181.28h828.02c100.07 0 181.22 81.22 181.22 181.28z"/><path class="st4" d="M941.88 722.12c22.87-11.88 34.73-35.38 43.46-58.54 10.26-27.21 17.36-55.67 30.34-81.82 6.3-12.7 14.13-24.8 24.14-34.91 10.54-10.64 23.73-18.66 37.2-25.04 31.72-15.03 67.29-19.75 102.08-20.25 70.8-1.03 140.3 14.97 210.58 20.85 54.96 4.6 110.17 6.59 165.32 5.64 62.41-1.08 124.96-5.83 186.43-16.95 51.63-9.34 103.24-23.04 150.99-45.18h-786.76c-100.1 0-181.25 81.15-181.25 181.25v79.82c5.7-.31 11.54-1.79 17.47-4.87z"/><path d="M2114.94 2160.39v289.72h-13.47c1.11-9.87 1.84-19.65 2.4-29.51 2.77-50.46-.46-101.19.55-151.64.74-35.89 2.59-73.06 10.52-108.57z" style="opacity:.35;fill:#202234"/><radialGradient id="SVGID_1_" cx="1144.531" cy="375.66" r="2207.395" gradientUnits="userSpaceOnUse"><stop offset="0" style="stop-color:#c8d9fb"/><stop offset=".036" style="stop-color:#c0d5fa"/><stop offset=".26" style="stop-color:#92bef7"/><stop offset=".475" style="stop-color:#6facf5"/><stop offset=".675" style="stop-color:#559ff3"/><stop offset=".856" style="stop-color:#4597f2"/><stop offset="1" style="stop-color:#4094f2"/></radialGradient><path d="M2048.53 652.38V2450.1H990.83V652.38c0-65.77 53.32-119.08 119.17-119.08h819.35c65.86 0 119.18 53.32 119.18 119.08z" style="fill:url(#SVGID_1_)"/><path class="st4" d="M2048.53 2130.13v147.22c-58.39 57.37-116.59 115.02-174.61 172.76h-145.37l319.98-319.98z"/><path class="st10" d="M2666.47 2038.9h-34.84a4.89 4.89 0 0 1 0-9.78h34.84c2.7 0 4.89 2.18 4.89 4.89-.01 2.7-2.19 4.89-4.89 4.89zM2599.7 2038.9h-12.3a4.89 4.89 0 0 1 0-9.78h12.3a4.89 4.89 0 0 1 0 9.78z"/><path class="st0" d="M2155.2 1476.26h46.85c3.63 0 6.57 2.94 6.57 6.57 0 3.63-2.94 6.57-6.57 6.57h-46.85c-3.63 0-6.57-2.94-6.57-6.57 0-3.63 2.94-6.57 6.57-6.57zM2245 1476.26h164.38c3.63 0 6.57 2.94 6.57 6.57 0 3.63-2.94 6.57-6.57 6.57H2245c-3.63 0-6.57-2.94-6.57-6.57 0-3.63 2.94-6.57 6.57-6.57z"/><path class="st10" d="M603.88 908.45h25.77c3.63 0 6.57 2.94 6.57 6.57 0 3.63-2.94 6.57-6.57 6.57h-25.77c-3.63 0-6.57-2.94-6.57-6.57 0-3.62 2.93-6.57 6.57-6.57zM672.59 908.45h96.44c3.63 0 6.57 2.94 6.57 6.57 0 3.63-2.94 6.57-6.57 6.57h-96.44c-3.63 0-6.57-2.94-6.57-6.57 0-3.62 2.94-6.57 6.57-6.57z"/><path class="st15" d="M1301.51 1467.63c-10.41 34.82-47.08 54.6-81.9 44.19-34.82-10.41-54.6-47.08-44.19-81.9 10.41-34.82 47.08-54.6 81.9-44.19 34.82 10.41 54.61 47.08 44.19 81.9z"/><path class="st16" d="M1295.95 1465.96c-9.49 31.75-42.92 49.79-74.67 40.29-31.75-9.49-49.79-42.93-40.29-74.67 9.49-31.75 42.92-49.79 74.67-40.29s49.78 42.93 40.29 74.67z"/><path class="st17" d="M1207.62 1411.08c4.47-4.22 8.25-8.65 13.92-11.4 5.56-2.7 11.57-3.85 17.7-4.33 9.01-.69 17.97.25 26.96.34-3.33-1.74-6.79-3.29-10.53-4.4-25.01-7.48-51.01 2.18-65.59 22.11 5.35 2.87 12.28 2.64 17.54-2.32z"/><path class="st5" d="M1284.19 1420.67c-3.85 2.83-2.61 11.11-2.27 15.11.45 5.35 1.62 10.67 1.66 16.04.11 13.64-2.67 30.15-14.68 38.43-3.81 2.63-8.28 3.74-12.31 5.92-3.48 1.87-6.65 4.26-10.26 5.91-7.4 3.4-15.45 3.47-23 .5-7.4-2.91-18.89-12.07-28.86-13.11 7.05 7.64 16.13 13.58 26.81 16.78 31.75 9.49 65.18-8.55 74.67-40.29 4.79-16.04 2.55-32.49-4.92-46.08-2.36-.76-4.74-.75-6.84.79z"/><path class="st15" d="M1252.11 1474.63c-3.99 2.2-9.03 2.86-15.1 2l-2.56 8.57-9.26-2.77 2.47-8.26c-3.78-1.41-7.24-3.16-10.37-5.25-3.13-2.09-5.6-4.24-7.4-6.46l8.39-9.77c1.94 2.32 4.36 4.44 7.26 6.38 2.9 1.93 5.89 3.36 8.98 4.28 5.87 1.75 9.24 1.16 10.11-1.77.46-1.54-.03-2.94-1.48-4.18-1.45-1.25-3.91-2.84-7.36-4.77-3.8-2.09-6.92-4.05-9.35-5.87-2.43-1.82-4.29-4.13-5.58-6.92-1.29-2.8-1.38-6.08-.26-9.83 1.32-4.43 4.05-7.74 8.19-9.95 4.14-2.21 9.32-2.78 15.56-1.7l2.54-8.49 9.26 2.77-2.49 8.34c2.86 1.14 5.52 2.49 7.99 4.07 2.47 1.58 4.58 3.3 6.32 5.17l-8.1 9.94c-4.31-4.32-8.89-7.2-13.73-8.65-3.04-.91-5.38-1.12-7.04-.63-1.66.48-2.71 1.45-3.14 2.89-.43 1.44.07 2.77 1.5 3.98s3.86 2.75 7.28 4.62c3.86 2.11 6.98 4.06 9.39 5.88 2.4 1.81 4.26 4.11 5.59 6.89 1.33 2.78 1.43 6.05.3 9.81-1.28 4.25-3.92 7.48-7.91 9.68z"/><path class="st18" d="M2247.81 1356.24c1.3 20.47-14.24 38.12-34.71 39.42-20.47 1.3-38.12-14.24-39.42-34.71-1.3-20.47 14.24-38.12 34.71-39.42 20.47-1.3 38.12 14.24 39.42 34.71zM850.22 1773.46c1.46 23.07-16.05 42.96-39.12 44.42-23.07 1.46-42.96-16.05-44.42-39.12-1.46-23.07 16.05-42.96 39.12-44.42 23.07-1.47 42.96 16.05 44.42 39.12zM2524.06 1917.37c1.33 21.03-14.63 39.16-35.66 40.49s-39.15-14.63-40.49-35.66c-1.33-21.03 14.63-39.15 35.66-40.49 21.02-1.33 39.15 14.64 40.49 35.66z"/><path class="st5" d="M2174.97 687.01c-8.55-40.13-48.02-65.73-88.15-57.18-40.13 8.55-65.73 48.02-57.18 88.15 8.55 40.13 48.02 65.73 88.15 57.18 40.13-8.55 65.73-48.01 57.18-88.15zM2187.49 1196.48h-576.12c-30.51 0-55.23 24.73-55.23 55.23v131.22c0 30.51 24.73 55.23 55.23 55.23h576.12c30.5 0 55.24-24.73 55.24-55.23v-131.22c-.01-30.51-24.74-55.23-55.24-55.23z"/><path class="st19" d="M2153.07 1151.94h-576.12c-30.51 0-55.23 24.73-55.23 55.23v131.22c0 30.51 24.73 55.23 55.23 55.23h576.12c30.5 0 55.23-24.73 55.23-55.23v-131.22c.01-30.5-24.72-55.23-55.23-55.23z"/><path class="st0" d="M1808.57 1263.02h93.38c6.07 0 10.99-4.92 10.99-10.99s-4.92-10.99-10.99-10.99h-93.38c-6.07 0-10.99 4.92-10.99 10.99s4.92 10.99 10.99 10.99zM1942.84 1263.02h53.68c6.07 0 10.99-4.92 10.99-10.99s-4.92-10.99-10.99-10.99h-53.68c-6.07 0-10.99 4.92-10.99 10.99s4.92 10.99 10.99 10.99zM2142.39 1241.04h-104.98c-6.07 0-10.99 4.92-10.99 10.99s4.92 10.99 10.99 10.99h104.98c6.07 0 10.99-4.92 10.99-10.99s-4.92-10.99-10.99-10.99zM1909.85 1303.3h-101.28c-6.07 0-10.99 4.92-10.99 10.99s4.92 10.99 10.99 10.99h101.28c6.07 0 10.99-4.92 10.99-10.99 0-6.08-4.92-10.99-10.99-10.99zM2108.52 1303.3h-157.78c-6.07 0-10.99 4.92-10.99 10.99s4.92 10.99 10.99 10.99h157.78c6.07 0 10.99-4.92 10.99-10.99-.01-6.08-4.93-10.99-10.99-10.99z"/><path class="st19" d="M1762.14 1237.87c-1.79 71.2-60.96 127.46-132.15 125.67s-127.46-60.96-125.67-132.15c1.79-71.2 60.96-127.46 132.15-125.67 71.19 1.79 127.46 60.95 125.67 132.15z"/><path class="st0" d="M1750.76 1237.58c-1.63 64.91-55.58 116.22-120.49 114.58-64.91-1.63-116.21-55.58-114.58-120.49 1.63-64.92 55.58-116.22 120.49-114.58 64.91 1.63 116.22 55.58 114.58 120.49z"/><path class="st17" d="M1555.51 1179.21c6.28-10.29 11.16-20.6 20.45-28.72 9.12-7.97 19.91-13.23 31.24-17.28 16.69-5.95 34.1-8.77 51.15-13.21-7.19-1.58-14.54-2.72-22.17-2.92-51.14-1.28-95.35 30.35-112.66 75.54 11.62 2.67 24.6-1.32 31.99-13.41z"/><path class="st5" d="M1705.24 1157.98c-5.82 7.33.77 22.34 3.47 29.74 3.6 9.88 8.54 19.35 11.39 29.49 7.22 25.73 10.46 58.38-8 80.22-5.85 6.93-13.73 11.34-20.24 17.52-5.63 5.34-10.4 11.48-16.37 16.46-12.25 10.23-27.43 14.51-43.24 12.76-15.48-1.71-41.93-13.11-61.31-9.95 17.26 10.82 37.48 17.39 59.32 17.94 64.91 1.63 118.86-49.67 120.49-114.58.82-32.79-11.88-62.74-33-84.61-4.83-.22-9.34 1.02-12.51 5.01z"/><path d="M1673.05 1255.93c-25.87-8.94-15.42-69.37-15.42-69.37l-62.92.71s-17.84 113.12 36.69 114.21c54.55 1.09 41.65-45.55 41.65-45.55z" style="fill-rule:evenodd;clip-rule:evenodd;fill:#517ce8"/><path d="M1672.13 1245.34s-3.64 52.89-40.72 56.14c0 0 46.82 4.44 58.7-6.21 11.88-10.65 23.95-52.54 23.95-52.54s-33.06 12.51-41.93 2.61z" style="fill-rule:evenodd;clip-rule:evenodd;fill:#eddaab"/><path class="st0" d="M1606.64 1215.61c7.28-.17 14.57.02 21.84.57 6.48.49 13 1.43 19.33-.58 1.79-.57.61-3.24-1.16-2.68-6.4 2.03-13.36.64-19.9.21-6.83-.45-13.67-.57-20.52-.42-1.88.06-1.45 2.95.41 2.9zM1606.99 1233.33c7.28-.17 14.57.02 21.84.57 6.48.49 13 1.43 19.33-.58 1.79-.57.61-3.24-1.16-2.68-6.4 2.03-13.35.64-19.9.21-6.83-.45-13.68-.57-20.52-.42-1.88.05-1.45 2.94.41 2.9zM1610.81 1249.54c7.29-.17 14.57.02 21.84.57 6.48.49 13 1.43 19.33-.58 1.79-.57.61-3.24-1.16-2.68-6.4 2.03-13.36.64-19.9.21-6.83-.45-13.68-.57-20.52-.42-1.87.05-1.45 2.94.41 2.9zM1612.02 1264.42c7.28-.17 14.57.02 21.84.57 6.48.49 13 1.43 19.33-.58 1.79-.57.62-3.24-1.16-2.68-6.4 2.03-13.35.64-19.9.21-6.83-.45-13.67-.57-20.52-.42-1.88.05-1.45 2.94.41 2.9z"/><path class="st0" d="M1642.76 1205.11c-.57 22.48-19.24 40.24-41.72 39.67-22.48-.57-40.24-19.24-39.67-41.72.56-22.48 19.24-40.24 41.72-39.67 22.47.56 40.23 19.24 39.67 41.72z"/><path class="st15" d="M1636.55 1204.95c-.48 19.04-16.31 34.1-35.35 33.62-19.05-.48-34.1-16.31-33.62-35.35.48-19.04 16.31-34.1 35.35-33.62 19.04.48 34.1 16.3 33.62 35.35z"/><path class="st16" d="M1615.83 1217.35c-2.2 2.17-5.36 3.52-9.47 4.07l-.1 6.05-6.54-.11.09-5.83c-2.72-.23-5.3-.73-7.72-1.52s-4.43-1.74-6.01-2.85l3.68-7.91c1.69 1.16 3.66 2.1 5.9 2.82 2.24.73 4.46 1.11 6.64 1.15 4.14.07 6.23-.94 6.27-3.01.02-1.09-.56-1.91-1.73-2.45-1.17-.55-3.07-1.13-5.67-1.76-2.86-.67-5.25-1.37-7.17-2.11-1.92-.74-3.55-1.9-4.91-3.49-1.36-1.58-2.01-3.71-1.97-6.36.05-3.13 1.22-5.79 3.51-7.99s5.57-3.52 9.83-3.96l.1-6 6.54.11-.09 5.89c2.07.22 4.05.61 5.95 1.19 1.9.58 3.59 1.31 5.06 2.21l-3.46 7.96c-3.6-2.02-7.11-3.06-10.53-3.12-2.14-.03-3.71.26-4.7.88-.99.62-1.5 1.44-1.51 2.46-.02 1.02.55 1.79 1.71 2.32 1.15.53 3.02 1.09 5.59 1.67 2.9.67 5.3 1.37 7.19 2.11 1.9.74 3.53 1.9 4.91 3.46 1.38 1.57 2.04 3.68 2 6.33-.06 3.03-1.19 5.62-3.39 7.79z"/><path class="st5" d="M1192.29 1162.05H721.85c-24.91 0-45.1 20.19-45.1 45.1v107.15c0 24.91 20.19 45.1 45.1 45.1h470.44c24.91 0 45.1-20.19 45.1-45.1v-107.15c0-24.91-20.19-45.1-45.1-45.1z"/><path class="st19" d="M1164.19 1125.68H693.75c-24.91 0-45.1 20.19-45.1 45.1v107.15c0 24.91 20.19 45.1 45.1 45.1h470.44c24.91 0 45.1-20.19 45.1-45.1v-107.15c0-24.91-20.2-45.1-45.1-45.1z"/><path class="st0" d="M882.88 1216.38h76.25c4.96 0 8.97-4.02 8.97-8.97s-4.02-8.97-8.97-8.97h-76.25c-4.95 0-8.97 4.02-8.97 8.97s4.01 8.97 8.97 8.97zM992.52 1216.38h43.83c4.95 0 8.97-4.02 8.97-8.97s-4.02-8.97-8.97-8.97h-43.83c-4.95 0-8.97 4.02-8.97 8.97s4.01 8.97 8.97 8.97zM1155.46 1198.44h-85.72c-4.95 0-8.97 4.02-8.97 8.97s4.02 8.97 8.97 8.97h85.72c4.95 0 8.97-4.02 8.97-8.97s-4.01-8.97-8.97-8.97zM965.58 1249.28h-82.7c-4.95 0-8.97 4.02-8.97 8.97 0 4.96 4.02 8.97 8.97 8.97h82.7c4.96 0 8.97-4.02 8.97-8.97 0-4.96-4.01-8.97-8.97-8.97zM1127.8 1249.28H998.97c-4.95 0-8.97 4.02-8.97 8.97 0 4.96 4.02 8.97 8.97 8.97h128.83c4.95 0 8.97-4.02 8.97-8.97.01-4.96-4.01-8.97-8.97-8.97z"/><path class="st19" d="M844.96 1195.85c-1.46 58.14-49.77 104.08-107.91 102.62-58.14-1.46-104.08-49.77-102.62-107.91 1.46-58.13 49.77-104.08 107.91-102.62 58.14 1.46 104.08 49.78 102.62 107.91z"/><circle transform="rotate(-7.252 740.06 1193.564)" class="st0" cx="739.7" cy="1193.21" r="96.01"/><path class="st17" d="M676.23 1147.95c5.13-8.4 9.11-16.82 16.7-23.45 7.45-6.51 16.25-10.81 25.51-14.11 13.63-4.85 27.85-7.16 41.77-10.78-5.87-1.29-11.87-2.22-18.1-2.38-41.76-1.05-77.86 24.78-91.99 61.68 9.48 2.17 20.08-1.09 26.11-10.96z"/><path class="st5" d="M798.51 1130.62c-4.76 5.98.63 18.24 2.83 24.28 2.94 8.07 6.98 15.8 9.3 24.08 5.9 21.01 8.54 47.67-6.53 65.51-4.78 5.66-11.21 9.26-16.53 14.31-4.59 4.36-8.49 9.37-13.37 13.44-10.01 8.35-22.39 11.84-35.3 10.42-12.64-1.39-34.23-10.7-50.06-8.12 14.09 8.83 30.61 14.2 48.44 14.65 53.01 1.33 97.06-40.56 98.39-93.56.67-26.77-9.7-51.24-26.94-69.09-3.97-.19-7.65.82-10.23 4.08z"/><path class="st19" d="M795.79 1179.62h.45l-.14-15.13-112.37 1.01.14 15.13c8.84.02 16 7.2 16.08 16.04.08 8.89-6.95 16.14-15.78 16.38l.14 15.13 112.37-1.01-.14-15.13h-.45c-8.99.08-16.3-7.1-16.38-16.09-.09-8.94 7.09-16.25 16.08-16.33zm-44.06 32.56-12.67-9.03-12.5 9.25 4.66-14.83-12.67-9.08 15.58-.14 4.66-14.83 4.93 14.74 15.58-.14-12.5 9.3 4.93 14.76z"/><path class="st15" d="M2211.26 677.14c8.55 40.13-17.05 79.6-57.18 88.15-40.13 8.55-79.6-17.05-88.15-57.18-8.55-40.13 17.05-79.6 57.18-88.15 40.13-8.56 79.59 17.04 88.15 57.18z"/><path class="st16" d="M2204.84 678.5c7.8 36.59-15.54 72.58-52.13 80.37-36.59 7.8-72.58-15.54-80.38-52.13-7.8-36.59 15.54-72.58 52.14-80.37 36.59-7.8 72.58 15.54 80.37 52.13z"/><path class="st17" d="M2087.61 672c2.14-6.61 3.49-13.04 7.6-18.84 4.04-5.69 9.38-10.09 15.19-13.87 8.55-5.57 17.93-9.49 26.89-14.27-4.24.08-8.51.43-12.81 1.34-28.83 6.14-49.35 29.8-52.99 57.44 6.86-.06 13.6-4.03 16.12-11.8z"/><path d="M2168.66 640.01c-2.28 4.89 3.43 12.42 5.94 16.2 3.35 5.05 7.38 9.69 10.34 14.99 7.5 13.45 13.7 31.31 6.28 46.02-2.35 4.67-6.17 8.19-8.99 12.53-2.44 3.75-4.28 7.82-6.96 11.42-5.49 7.37-13.42 11.81-22.51 12.95-8.9 1.12-25.25-1.72-35.69 2.65 11.12 3.75 23.34 4.72 35.65 2.09 36.59-7.8 59.93-43.78 52.14-80.37-3.94-18.48-15.08-33.56-29.84-42.98-2.77.54-5.12 1.84-6.36 4.5z" style="opacity:.05;fill:#202234"/><path class="st15" d="M2166.11 710.85c-2.77 4.34-7.39 7.73-13.88 10.17l2.1 9.88-10.68 2.28-2.03-9.52c-4.51.65-8.89.79-13.12.42-4.23-.37-7.85-1.17-10.83-2.39l3.02-14.22c3.18 1.24 6.73 2.04 10.64 2.38 3.92.34 7.66.14 11.22-.62 6.76-1.44 9.78-3.85 9.06-7.23-.38-1.78-1.62-2.89-3.73-3.34-2.11-.45-5.41-.69-9.88-.73-4.9-.01-9.05-.26-12.44-.75-3.39-.49-6.48-1.76-9.28-3.84-2.8-2.07-4.66-5.27-5.58-9.6-1.09-5.1-.18-9.87 2.72-14.3 2.9-4.43 7.73-7.8 14.5-10.11l-2.08-9.79 10.68-2.28 2.05 9.61c3.45-.42 6.82-.52 10.12-.3 3.31.23 6.32.79 9.06 1.7l-2.64 14.24c-6.61-1.94-12.71-2.32-18.29-1.13-3.5.75-5.94 1.81-7.32 3.19s-1.9 2.9-1.54 4.56 1.57 2.7 3.65 3.13c2.07.43 5.31.64 9.71.63 4.96 0 9.12.24 12.48.73 3.36.49 6.45 1.76 9.27 3.79 2.82 2.03 4.69 5.22 5.61 9.55 1.05 4.91.19 9.54-2.57 13.89z"/><path class="st4" d="M1884.94 533.31h-88.63l-805.46 805.46v86.07c297-298.21 594.99-595.43 894.09-891.53zM2048.5 835.28V652.42c0-64.85-51.85-117.48-116.34-118.96 6.63 9.69 7.65 22.92-3.15 33.61-313.89 310.71-626.59 622.62-938.16 935.66v391.6c352.27-353.31 704.88-706.26 1057.65-1059.05z"/><path class="st5" d="M2180.02 2274.29c-7.55-36.57-33.6-73.4-75.85-71.43-42.29 1.24-85.67 61.19-72.16 122.27 13.63 61.17 67.74 77.3 102.96 51.63 36.24-25.88 51.62-65.6 45.05-102.47z"/><path class="st15" d="M2231.97 2293.47c6.57 36.88-8.81 76.59-45.05 102.46-35.22 25.67-89.34 9.54-102.97-51.63-13.51-61.07 29.87-121.03 72.16-122.26 42.26-1.97 68.31 34.86 75.86 71.43z"/><path class="st16" d="M2225.43 2294.76c6.09 34.55-8.55 71.7-42.1 94.38-32.75 22.51-81.02 6.73-92.92-48.04-11.86-54.65 26.06-108.67 64.64-110.86 38.58-2.75 63.51 30.24 70.38 64.52z"/><path class="st15" d="M2186.74 2331.51c-2.42 5.26-6.69 9.87-12.96 13.96 1.2 3.72 2.47 7.41 3.83 11.06-3.48 1.68-6.95 3.4-10.4 5.17a291.97 291.97 0 0 1-3.84-11.01c-4.5 1.71-8.93 2.83-13.31 3.26-4.38.44-8.2.19-11.45-.77.27-6.39.73-12.74 1.38-19.04 3.36 1.13 7.06 1.57 11.1 1.39 4.04-.18 7.84-1.03 11.42-2.48 6.79-2.75 9.68-5.95 8.76-9.85-.48-2.05-1.79-3.24-3.97-3.55-2.18-.31-5.55-.27-10.13.17-5.02.51-9.27.67-12.75.43-3.48-.24-6.69-1.55-9.56-3.99-2.86-2.44-4.76-6.53-5.48-12.26-.85-6.74.54-13.23 4.07-19.11 3.53-5.9 9.01-10.22 16.24-12.91-.12-4.14-.16-8.3-.1-12.47 3.74-.71 7.47-1.39 11.2-2.02-.07 3.97-.05 7.93.06 11.87 3.54-.35 6.95-.29 10.22.16 3.28.45 6.21 1.28 8.81 2.46-1.65 5.41-3.14 10.89-4.47 16.42-6.53-2.25-12.64-2.77-18.44-1.26-3.63.94-6.22 2.32-7.76 4.09s-2.19 3.73-1.95 5.82c.24 2.1 1.43 3.36 3.52 3.79 2.09.43 5.39.51 9.88.29 5.06-.25 9.29-.14 12.69.29 3.41.43 6.51 1.76 9.35 3.91 2.85 2.17 4.73 5.61 5.79 10.35 1.23 5.38.66 10.56-1.75 15.83z"/><path class="st1" d="M1305.53 801.63v30.45h-21.63v-89.74h35.81c6.86 0 12.93 1.26 18.21 3.79 5.28 2.53 9.37 6.12 12.27 10.79 2.9 4.66 4.35 9.95 4.35 15.87 0 8.75-3.13 15.75-9.4 20.99-6.26 5.24-14.86 7.86-25.79 7.86h-13.82zm0-16.71h14.18c4.19 0 7.38-1.05 9.58-3.15 2.2-2.1 3.29-5.06 3.29-8.87 0-4.2-1.13-7.54-3.39-10.05-2.26-2.51-5.34-3.78-9.25-3.82h-14.42v25.89zM1406.06 815.31h-29.64l-5.18 16.76h-23.12l32.92-89.74h20.35l33.16 89.74h-23.24l-5.25-16.76zm-24.47-16.7h19.29l-9.68-31.13-9.61 31.13zM1464.67 781.29l16.52-38.96h23.36l-28.91 57.51v32.24h-21.95v-32.24l-28.85-57.51h23.24l16.59 38.96zM1599.04 796.32h-34.89v35.75h-21.63v-89.74h60.04v16.7h-38.41v20.65h34.89v16.64zM1687.56 789.05c0 8.75-1.63 16.5-4.87 23.24-3.25 6.74-7.86 11.93-13.84 15.57-5.98 3.64-12.79 5.45-20.43 5.45-7.65 0-14.42-1.75-20.35-5.27-5.91-3.51-10.53-8.54-13.83-15.07-3.31-6.53-5.05-14.03-5.21-22.5v-5.06c0-8.79 1.61-16.55 4.84-23.27 3.22-6.71 7.84-11.9 13.87-15.56 6.01-3.66 12.87-5.48 20.55-5.48 7.6 0 14.38 1.81 20.34 5.42 5.96 3.62 10.59 8.76 13.9 15.44 3.31 6.68 4.98 14.33 5.03 22.96v4.13zm-22.01-3.76c0-8.92-1.49-15.69-4.47-20.31-2.98-4.62-7.25-6.93-12.79-6.93-10.85 0-16.58 8.13-17.19 24.41l-.06 6.59c0 8.8 1.45 15.55 4.38 20.28 2.92 4.73 7.25 7.09 13.01 7.09 5.46 0 9.67-2.33 12.63-6.96 2.96-4.65 4.46-11.33 4.5-20.04v-4.13zM1732.06 800.33h-11.72v31.74h-21.63v-89.74h35.32c10.65 0 18.97 2.36 24.96 7.08 6 4.72 9 11.39 9 20.01 0 6.24-1.26 11.41-3.79 15.51-2.53 4.11-6.48 7.43-11.86 9.98l18.74 36.23v.93h-23.17l-15.85-31.74zm-11.72-16.64h13.69c4.11 0 7.21-1.08 9.28-3.24 2.08-2.17 3.11-5.18 3.11-9.05s-1.04-6.91-3.14-9.11c-2.1-2.21-5.18-3.31-9.25-3.31h-13.69v24.71zM1205.42 937.05h-34.02v21.45h40.19v16.64h-61.82V885.4h61.95v16.7h-40.32v18.93h34.02v16.02zM1255.23 950.74l17.87-65.34h24.17l-30.2 89.74h-23.67l-29.96-89.74h23.98l17.81 65.34zM1359.45 937.05h-34.02v21.45h40.19v16.64h-61.82V885.4h61.94v16.7h-40.32v18.93h34.02v16.02zM1407.78 943.4h-11.72v31.74h-21.63V885.4h35.32c10.65 0 18.97 2.36 24.96 7.09 6 4.72 9 11.39 9 20.01 0 6.24-1.26 11.41-3.79 15.51-2.53 4.11-6.48 7.43-11.86 9.97l18.74 36.24v.93h-23.17l-15.85-31.75zm-11.72-16.65h13.69c4.11 0 7.21-1.08 9.28-3.24 2.08-2.16 3.11-5.18 3.11-9.05 0-3.87-1.04-6.91-3.14-9.11-2.1-2.21-5.18-3.31-9.25-3.31h-13.69v24.71zM1486.68 924.35l16.52-38.96h23.36l-28.91 57.51v32.24h-21.95V942.9l-28.85-57.51h23.24l16.59 38.96zM1604.58 902.1h-26.93v73.04h-21.64V902.1h-26.44v-16.7h75.01v16.7zM1688.72 975.14h-21.52v-37.47h-31.87v37.47h-21.63V885.4h21.63v35.63h31.87V885.4h21.52v89.74zM1725.45 975.14h-21.57V885.4h21.57v89.74zM1815.45 975.14h-21.52l-31.81-55.84v55.84h-21.63V885.4h21.63l31.74 55.84V885.4h21.58v89.74zM1902.6 964.04c-3.33 3.7-8.2 6.68-14.61 8.94-6.4 2.26-13.44 3.39-21.08 3.39-11.75 0-21.14-3.59-28.17-10.78-7.02-7.19-10.79-17.2-11.28-30.02l-.06-7.77c0-8.83 1.56-16.55 4.68-23.14 3.12-6.59 7.59-11.67 13.4-15.22 5.81-3.56 12.55-5.33 20.19-5.33 11.17 0 19.86 2.55 26.04 7.67 6.18 5.11 9.79 12.75 10.81 22.9h-20.83c-.74-5.02-2.35-8.59-4.81-10.73-2.47-2.13-5.96-3.2-10.48-3.2-5.43 0-9.62 2.3-12.58 6.9-2.96 4.6-4.46 11.18-4.5 19.72v5.42c0 8.96 1.53 15.69 4.59 20.18 3.06 4.5 7.88 6.75 14.45 6.75 5.63 0 9.82-1.25 12.58-3.76v-13.93h-15.04v-14.85h36.68v36.86z"/><path class="st23" d="M1535.66 1505.14c-23.98-6.93-126.57-23.57-137.04 59.36-10.47 82.92 34.04 169.34 2.62 210.37-31.42 41.03-73.32 82.92 1.74 116.09 75.07 33.17 296.62-29.1 253.36-82.4-78.25-96.42-2.84-269.37-120.68-303.42z"/><path class="st24" d="M1277.91 2248.31s-62.77 234.79 46.3 253.96c111.03 19.52 181.86 15.37 377.51 0 192.74-15.14 118.4-206.58 56.15-253.96-62.26-47.38-454.01-40.74-479.96 0z"/><path class="st25" d="M1024.46 1665.4c.47 1.23 1 2.3 1.49 3.1.11.17.19.31.29.44 2.31 3.32 4.78 6.51 7.17 9.38 6.39 7.75 12.15 13.31 12.15 13.31s14.05 56.75 18.49 62.97c6.85 4.56 35.87-10.01 35.87-10.01 2.89-6.56-18.16-61.49-20.01-72.88-1.87-11.41 18.11-38.48 8.09-40.68-6.33 4.2-16.8 17.42-16.8 17.42s-.35-23.66-13.44-20.48c-5.82 1.41-5.79 4.83-5.44 6.53.01.1.04.19.06.28-.02-.02-7.34-1.64-10.86 1.66-1.72 1.61-1.97 3.19-1.97 3.19s-3.12-.41-5.07.7c-1.97 1.11-4.33 3.87-4.05 4.92-.04.01-2.78-.49-4.65 1.64-1.9 2.11-2.45 15.52-1.32 18.51z"/><path class="st26" d="M1051.86 1636.53c-.96.51-2 .83-2.95 1.38-1.66.95-2.79 2.23-3.58 3.96-.6 1.31-1.01 2.8-2.02 3.87-1.24 1.31-3.39 1.82-5.03 2.44-1.88.7-3.77 1.47-5.37 2.71-1.46 1.13-2.88 2.42-4.11 3.8-1.17 1.31-2.25 2.81-2.85 4.47-.68 1.89-.81 3.99-1.27 5.96-.07.1-.15.19-.21.3-1.13-3-.58-16.4 1.3-18.52 1.88-2.13 4.61-1.62 4.65-1.64-.29-1.05 2.08-3.8 4.05-4.92 1.96-1.11 5.07-.7 5.07-.7s.24-1.58 1.97-3.19c3.52-3.3 10.84-1.68 10.86-1.66.23.37.41.75.53 1.13-.35.2-.69.42-1.04.61zM1088.51 1640.72s-1.23.24-1.34-1.42c-.11-1.66 2.7-5.95 2.7-5.95s1.88 2.76-1.36 7.37z"/><path class="st1" d="M1441.48 1771.77c61.02-14.3-29.24 324.77-237.8 358.33-138.79 22.34-154.69-422.02-154.69-422.02l37.91-18.34 157.86 259.3s74.48-148.61 196.72-177.27z"/><path class="st5" d="M1416.8 1934.91c-6.67-9.06-18.11-14.91-28.96-17.04-22.66-4.44-39.41 13.85-49.89 31.51-5.57 9.38-10.04 19.35-14.06 29.47-5.07 12.78-10.91 25.31-17.61 37.32-13.66 24.49-31.7 47.77-56.15 62.23-25.83 15.27-59.26 21.56-88.66 14.91-14.25-3.22-27.1-9.51-39.13-17.29 20.81 37.04 47.39 59.54 81.33 54.08 101.31-16.31 174.7-104.71 216.41-189.67-.9-1.92-1.99-3.77-3.28-5.52z"/><path class="st1" d="M1626.1 1770.88c15.67 15.67 130.73 39.88 189.53 272.64 0 0 62.68 13.43 58.2 51.48-4.48 38.05 6.72 154.45-94.01 94.01-100.73-60.43-153.72-418.13-153.72-418.13z"/><path class="st5" d="M1844.85 2144.93c-6.48 3.85-13.35 7.84-20.62 9.98-13.7 4.02-23.95-11.01-29.6-21.28-8.17-14.85-13.26-31.21-18.66-47.2-3-8.89-5.67-17.43-7.14-26.77-2.1-13.37-2.71-26.88-3.12-40.39-.39-12.86-.33-25.76-3.03-38.39-2.23-10.43-5.69-20.58-10.46-30.12-11.95-23.94-30.73-42.77-51.88-58.7-13.64 7.39-25.67 17.37-39.55 24.43-1.74.88-3.52 1.69-5.27 2.53 25.46 105.99 67.21 235.74 124.3 269.99 80.04 48.02 89.41-15.59 92.13-62.85-1.79 1.52-3.63 3.01-5.54 4.43a249.64 249.64 0 0 1-21.56 14.34z"/><path class="st1" d="M1533.04 1744.25c-75.76-3.15-144.86 32.77-144.86 132.71 0 200.01-90.57 420.04-90.57 420.04s84.22 36.14 246.37.42c162.16-35.73 178.51-68.97 178.51-68.97s-1.12-153.09-7.76-209.36c-16.33-138.49 6.7-267.01-181.69-274.84z"/><path class="st27" d="M1404.22 2568.16c-6.95 6.37 15.09 72.78 20.43 77.66l3.58 3.27c.79.73 1.68 1.53 2.65 2.34l.04.04c.79.64 1.59 1.37 2.51 2.04 1.85 1.53 3.81 2.92 5.91 4.27 0 0 .08 0 .13.04.91.59 1.92 1.18 2.87 1.73 0 0 .04.04.08 0 .82.43 1.69.81 2.51 1.16 0 0 .08 0 .26.07 1.29.53 2.58.9 3.78 1.1l.04-.04c.77.14 1.53.19 2.25.11.09.08.17.08.17-.01.09 0 .13.04.22.03.34-.01.68-.03.92-.13 1.43-.15 2.81-.68 3.99-1.62.9-.63 1.79-1.52 2.55-2.61 9.06-13.11-16.17-75.47-16.17-75.47s-1.33-11.46-10.74-20.27c-2.79-2.61-6.96-4.09-11.4-5.8-.02 0-9.62 5.73-16.58 12.09z"/><path class="st28" d="M1430.92 2651.47c.79.64 1.59 1.37 2.51 2.04 1.38.62 3.08.62 4.68-1.31 3.98-4.8-5.34-18.09-6.56-19.77.62 1.45 5.6 13.47 3.75 16.64-1.49 2.7-3.57 2.58-4.38 2.4z"/><path class="st28" d="M1439.46 2657.82c.91.59 1.92 1.18 2.87 1.73 0 0 .04.04.08 0 .76-.03 1.55-.37 2.31-1.29 3.09-3.74-4.19-14.12-5.09-15.35.57 1.33 4.33 10.52 2.91 12.95-1.06 1.79-2.36 1.97-3.08 1.96z"/><path class="st28" d="M1445.18 2660.78c1.29.53 2.58.9 3.78 1.1.04.04.04.04.04-.04.29-.14.49-.36.73-.63 2.53-3.04-3.44-11.57-4.21-12.6.38.91 3.61 8.64 2.43 10.65-.98 1.7-2.3 1.63-2.77 1.52zM1451.41 2661.94c-.17-.08-.26-.07-.26-.07s.04.04.09.08c.09.08.18.08.17-.01zM1454.22 2660.38c-.51.91-1.13 1.32-1.67 1.47 1.43-.15 2.81-.68 3.99-1.62-.04-3.77-4.08-9.64-4.75-10.5.39.92 3.57 8.6 2.43 10.65z"/><path class="st25" d="M1420.78 2556.07c-.07 4.07 1.01 7.49 2.76 10.46 7.24 12.12 25.94 15.77 25.94 15.77l27.58-28.76-22.33-19.11-6.21-5.27-27.74 26.91z"/><path class="st29" d="M1404.22 2568.16c-6.95 6.37 15.09 72.78 20.43 77.66l3.58 3.27c.37-1.29-.39-3.03-2.9-5.25-9.69-8.37-13.19-66.35-11.88-72.04.89-3.72 6.26-4.81 10.09-5.28 2.11-.27 3.71-.34 3.95-.6.16-.18 2.04-1.78 4.69-4.06 7.58-6.52 21.69-18.59 22.17-19.12l.39-8.32-6.21-5.27-27.75 26.91c0 .01-9.6 5.74-16.56 12.1z"/><path class="st30" d="M1396.25 2572.68c-2.63 6.3 15.72 62.7 29.22 78.87 3.01 3.56 10.33 8.74 18.05 12.21 3.21 1.43 6.48 2.68 9.54 3.39 6.17 1.24 11.41.46 13.12-4.47 4.45-12.74-17.51-70.26-19.1-74.48-.07-.18-.13-.24-.13-.24s16.83-6.87 17.06-16.64c0 0-16.37-13.8-26.62-22.36-3.65-3.11-6.95-5.08-8.99-4.62-7.73 1.62-29.46 22.1-32.15 28.34z"/><path class="st31" d="M1396.25 2572.68c-2.63 6.3 15.72 62.7 29.22 78.87 3.01 3.56 10.33 8.74 18.05 12.21-23.56-22.92-47.08-78.62-41.5-91.95 5.03-11.98 28.93-20.74 35.37-22.85-3.65-3.11-6.95-5.08-8.99-4.62-7.73 1.62-29.46 22.1-32.15 28.34z"/><path class="st31" d="M1453.07 2667.15c6.17 1.24 11.41.46 13.12-4.47 4.45-12.74-17.51-70.26-19.1-74.48-.07-.18-.13-.24-.13-.24s-17.72-23.73-33.49-16.12c-13.81 6.62 12.56 73.14 39.6 95.31z"/><path class="st30" d="M1452.13 2507.46c81.42-67.14 250.92-369.26 424-211.26 96.4 88-215.59 223.33-392.16 276.46-20.15 6.07-48.1-51.8-31.84-65.2z"/><path class="st27" d="M1668.48 2560.53c8.27 5.79-5.84 79.33-10.82 85.26l-3.34 3.97c-.74.88-1.57 1.86-2.48 2.85l-.04.05c-.75.79-1.49 1.67-2.37 2.52-1.75 1.88-3.64 3.63-5.67 5.35 0 0-.09.01-.13.06-.89.76-1.87 1.53-2.81 2.24 0 0-.04.05-.09.01-.81.57-1.68 1.1-2.5 1.58 0 0-.09.01-.26.11-1.3.75-2.61 1.32-3.85 1.69l-.05-.04c-.79.25-1.6.41-2.37.43-.08.09-.17.1-.18.01-.09.01-.13.06-.22.06-.36.03-.72.06-1 0a8.21 8.21 0 0 1-4.46-1.16c-1.05-.54-2.12-1.36-3.07-2.41-11.45-12.64 6.62-82.34 6.62-82.34s-.19-12.34 8.56-23.01c2.59-3.16 6.81-5.31 11.28-7.74-.01-.01 10.98 4.73 19.25 10.51z"/><path class="st28" d="M1651.8 2652.66c-.75.79-1.49 1.67-2.37 2.52-1.38.85-3.18 1.09-5.15-.74-4.89-4.53 3.14-19.94 4.2-21.9-.45 1.63-4.06 15.07-1.66 18.18 1.95 2.65 4.14 2.23 4.98 1.94z"/><path class="st28" d="M1643.62 2660.58c-.89.76-1.87 1.53-2.81 2.24 0 0-.04.05-.09.01-.81.07-1.7-.17-2.63-1.05-3.8-3.53 2.48-15.57 3.26-17-.42 1.49-3.12 11.76-1.28 14.15 1.38 1.75 2.79 1.77 3.55 1.65z"/><path class="st28" d="M1637.96 2664.52c-1.3.75-2.61 1.32-3.85 1.69-.04.05-.04.05-.05-.04-.33-.11-.57-.31-.86-.56-3.11-2.87 2.03-12.76 2.7-13.95-.28 1.02-2.62 9.67-1.09 11.63 1.28 1.67 2.67 1.41 3.15 1.23zM1631.51 2666.63c.17-.11.26-.11.26-.11l-.08.1c-.08.09-.17.09-.18.01zM1628.31 2665.36c.67.9 1.38 1.24 1.98 1.33a8.21 8.21 0 0 1-4.46-1.16c-.48-4 2.98-10.8 3.57-11.8-.28 1.02-2.58 9.62-1.09 11.63z"/><path class="st25" d="M1649.22 2550.01c.64 4.31-.03 8.09-1.46 11.48-5.98 13.87-25.32 20.36-25.32 20.36l-33.28-26.66 21.02-23.39 5.85-6.46 33.19 24.67z"/><path class="st29" d="M1668.48 2560.53c8.27 5.79-5.84 79.33-10.82 85.26l-3.34 3.97c-.57-1.31-.01-3.27 2.35-5.97 9.11-10.24 4.72-72.24 2.54-78.09-1.47-3.83-7.32-4.23-11.45-4.19-2.27.01-3.99.16-4.28-.08-.2-.17-2.41-1.61-5.54-3.66-8.96-5.86-25.61-16.69-26.2-17.19l-1.57-8.77 5.85-6.46 33.2 24.67c0-.01 10.99 4.73 19.26 10.51z"/><path class="st30" d="M1677.57 2564.21c3.66 6.31-7.92 68.73-19.99 87.77-2.69 4.2-9.73 10.72-17.45 15.48-3.21 1.97-6.5 3.75-9.65 4.93-6.38 2.17-12.04 2.08-14.55-2.9-6.5-12.89 8.77-76.99 9.85-81.7.05-.2.11-.27.11-.27s-18.82-4.94-20.42-15.27c0 0 15.44-16.93 25.12-27.45 3.44-3.81 6.67-6.36 8.89-6.16 8.45.63 34.37 19.33 38.09 25.57z"/><path class="st31" d="M1677.57 2564.21c3.66 6.31-7.92 68.73-19.99 87.77-2.69 4.2-9.73 10.72-17.45 15.48 21.8-27.62 38.97-89.99 31.19-103.36-7.01-12-33.59-17.97-40.72-19.3 3.44-3.81 6.67-6.36 8.89-6.16 8.44.63 34.36 19.33 38.08 25.57z"/><path class="st31" d="M1630.48 2672.38c-6.38 2.17-12.04 2.08-14.55-2.9-6.5-12.89 8.77-76.99 9.85-81.7.05-.2.11-.27.11-.27s15.49-27.66 33.28-21.78c15.59 5.09-3.1 79.36-28.69 106.65z"/><path class="st12" d="M1579.57 2581.58c-110.62-22.8-476.12-119.82-404.01-239.46 115.68-191.93 274.19 57.64 436.99 169.15 18.57 12.73-10.91 74.86-32.98 70.31z"/><path class="st25" d="m1567.9 1776.17-47.09 68.35s-9.88-24.62-21.44-45.6c-4.94-8.95-10.17-17.34-15.11-22.75l10.35-48.4 42.15-36.65 11.1-9.7 20.04 94.75z"/><path d="M1536.76 1747.26c-4.2 4.47-9.79 7.09-14.17 11.38-6.62 6.43-17.53 24.62-23.22 40.28-4.94-8.95-10.17-17.34-15.11-22.75l10.35-48.4 42.15-36.65c-.84 11.75 4.2 23.22 5.41 35.06.74 7.19-.19 15.58-5.41 21.08z" style="opacity:.15;fill:#33133f"/><path class="st25" d="M1410.25 1574.68s-5.82 167.01 60.52 172.25c66.34 5.24 95.44-64.59 95.44-64.59s12.22 7.57 15.13-4.65 17.46-33.75 2.91-41.9c-14.55-8.15-19.2 5.24-19.2 5.24l8.15-37.82c-.01-.01-161.2-83.23-162.95-28.53z"/><path class="st33" d="M1570.88 1643.3s8.73-4.72 12.23 2.1c3.49 6.81-4.19 32.84-14.5 29.69 0 0 13.28-5.76 11.7-21.66-1.57-15.9-7.16-5.07-9.43-10.13z"/><path d="M1440.46 1547.27c.4-7.01.05-11.58.05-11.58-68.96 6.11-35.79 77.69-35.79 77.69 23.94-11.97 32.05-37.28 34.7-55.77 18.53 25.36 63.7 76.28 128.53 77.59l20.95-34.92-148.44-53.01z" style="fill:#33133f"/><path class="st23" d="M1543.25 1513.02c22.15 7.12 41.43 20.36 54.41 39.84 12.26 18.4 18.56 40.03 22.62 61.56 8.56 45.43 6.78 92.7 19.1 137.45 5.91 21.45 15.89 42.19 33.38 56.55 2.42 1.99 5.91-1.46 3.47-3.47-34.17-28.05-38.38-77.92-42.42-118.8-4.39-44.45-5.79-94.03-30.17-133.06-13.72-21.95-34.59-36.93-59.09-44.81-3-.95-4.29 3.78-1.3 4.74z"/><path class="st33" d="M1525.31 1679.32c.78 4.64-4.27 9.35-11.28 10.53-7.01 1.18-13.33-1.62-14.11-6.25-.78-4.63 4.27-9.35 11.28-10.53 7.02-1.18 13.33 1.62 14.11 6.25zM1445.88 1679.76c.78 4.63-4.27 9.35-11.28 10.53-7.01 1.18-13.33-1.62-14.11-6.25-.78-4.64 4.27-9.35 11.28-10.53 7.01-1.19 13.33 1.61 14.11 6.25z"/><path class="st23" d="M1450.84 1628.91c.72.5 1.04 1.43.72 2.29a1.955 1.955 0 0 1-2.52 1.16c-16.44-6.06-28.25-.95-28.37-.9-.98.44-2.14 0-2.59-.98-.44-.99-.01-2.14.98-2.59.54-.24 13.31-5.85 31.34.79.16.06.31.14.44.23zM1483.94 1625.91c22.91-8.58 37.05-.61 37.65-.26.94.54 1.25 1.74.71 2.67-.53.93-1.73 1.26-2.67.72-.14-.08-13.85-7.63-35.82 1.13-.01 0-.03.01-.04.01-.99.37-2.11-.11-2.51-1.1a1.96 1.96 0 0 1 1.09-2.55c.53-.22 1.07-.42 1.59-.62zM1462.79 1683.2c-.13 0-.25-.01-.37-.03-10.16-1.97-11.94-9.33-12.01-9.64-.2-.88.23-1.78 1.03-2.19 5.09-2.54 9.61-15.1 10.92-19.73a1.958 1.958 0 0 1 2.42-1.35 1.96 1.96 0 0 1 1.35 2.42c-.49 1.74-4.74 16.16-11.4 21.2.88 1.62 3.11 4.41 8.43 5.44a1.957 1.957 0 0 1-.37 3.88z"/><path class="st33" d="M1490.4 1705.14c-21.08 2.75-21.66 5.07-31.09 5.68 8.47 8.2 36.94 15.01 31.09-5.68z"/><path d="M1490.6 1704.89c-18.45 2.41-32.4 5.79-32.4 5.79s31.69 14.69 32.4-5.79z" style="fill:#de5d36"/><path class="st23" d="M1450.43 1646.07c0 3.84-3.12 6.96-6.96 6.96s-6.96-3.12-6.96-6.96 3.12-6.96 6.96-6.96 6.96 3.11 6.96 6.96zM1501.18 1644.09a6.23 6.23 0 0 1-12.46 0 6.23 6.23 0 0 1 12.46 0z"/><path class="st36" d="M1381.04 1798.7c-3.45-31.93 78.17-48.26 100.92-50.61 11.63 11.35-49.4 60.34 23.72 203.05 73.12 142.7 13.7 363.89 12.04 368.75-1.66 4.86-233.07-7.71-218.37-64 54.6-208.96 104.95-241.51 81.69-457.19z"/><path class="st5" d="M1430.42 2190.22c-5.2-1.93-10.87-.42-16.27-.74-11.97-.7-22.69-7.09-34.22-9.87.09 6.06 3.87 10.1 9.73 12.63 6.53 2.81 13.96 3.62 21 3.77 6.49.14 13.82.27 19.7-2.53.89-.43 1.8-.92 2.5-1.62.06-.06.13-.16.19-.26-.03-.01-.03-.03-.07-.04-.86-.31-1.67-1-2.56-1.34zM1350.5 2120.17c4.65-7.51 10.16-14.19 15.48-21.21 5.98-7.89 11.11-16.49 15.24-25.49 7.79-16.99 12.97-39.15 1.58-55.53-4.34 3.38-8.66 6.78-12.96 10.21-11.96 44.9-29.17 89.15-48.26 150.37 9.34-19.6 17.49-39.89 28.92-58.35z"/><path class="st5" d="M1505.68 1951.13c-36.33-70.89-39.53-118.64-35-150.15-6.93 18.17-11.98 37.03-14.29 56.39-3.49 29.16-.93 58.57 4.91 87.25 3.32 16.32 7.61 32.43 12.36 48.39 4.61 15.48 10.25 30.6 14.96 46.05 9.62 31.56 17.09 64.31 18.06 97.41.46 15.84-.67 31.86-4.38 47.3-2.7 11.25-6.5 22.35-9.77 33.45-6.12 20.76-13.13 45.1-30.07 59.85-19.69 17.14-46.77 9.68-68.72 1.26-14.53-5.58-28.51-12.46-42.42-19.41-6.38-3.19-12.74-6.4-19.18-9.46-4.99-2.37-10.22-4.26-15.1-6.83-4.18-2.2-8.2-4.69-12.18-7.24-1.83 6.65-3.66 13.45-5.5 20.49-14.71 56.29 216.71 68.87 218.37 64 1.65-4.86 61.07-226.04-12.05-368.75z"/><path class="st36" d="M1576.24 1744.29c-3.32-.06 31.02 34.35 18.84 76.45-12.19 42.1-25.48 121.87-9.97 257.04 15.51 135.17 3.32 235.99 3.32 235.99s25.48-38.78 70.91-54.29c45.42-15.51 127.41-5.54 127.41-5.54s-69.8-222.69-77.55-335.7c-7.76-113.01-67.59-172.84-132.96-173.95z"/><path class="st5" d="M1734.03 2162.55c-3.59.8-7.01 2.18-10.48 3.34-4.6 1.53-9.55 2.18-14.3 3.06-7.88 1.45-15.77 2.83-23.58 4.62 6.75 1.86 14 2 20.94 1.34 8.12-.77 17.18-2.49 24.61-6 2.91-1.37 5.17-3.48 7.08-6 .05-.08.12-.27.17-.45-.11-.07-.26-.13-.48-.17-1.36-.23-2.61-.04-3.96.26zM1596.16 2247.14c2.49-8.48 4.51-17.11 5.76-25.86 1.46-10.17 1.42-20.46 2.44-30.67 2.01-20.1 6.11-39.92 8.17-60.01 1.94-18.93 1.4-37.2-3.56-55.64-4.27-15.88-10.5-31.15-14.65-47.06-4.39-16.83-5.13-33.09-3.03-50.31 2.17-17.74 4.61-35.46 6.11-53.28 2.46-29.16 2.68-59.75-6.47-87.74-10.69 45.1-19.58 121.37-5.83 241.21 8.61 75.01 8.68 139.4 7.05 181.9 1.41-4.16 2.78-8.33 4.01-12.54z"/><path class="st5" d="M1719.28 1991.43c-9.42 2.59-10.47 19.37-10.46 26.82.03 16.67 6.42 32.64 12.85 47.76 3.16 7.43 6.43 14.83 9.24 22.41 3.24 8.73 5.06 17.99 6.83 27.11 1.75 9.01 3.32 18.07 5.68 26.95 1.98 7.4 4.42 14.64 6.11 22.13 3.06 13.63 4.73 28.56.02 42.02-4.79 13.72-15.4 23.2-28.93 27.94-12.04 4.22-24.91 5.72-35.78 12.85-3.54 2.32-6.85 5.07-10.04 7.98 46.35-9.42 111.95-1.46 111.95-1.46s-46.01-146.81-67.47-262.51z"/><path class="st30" d="m1780.69 2010.32 59.52 8.39c6.98.98 10.91 7.77 8.82 15.13l-41.32 145.7c-1.95 6.86-9.04 12.08-15.9 11.67l-22.74-1.35c-1.01-.06-2-.08-2.9-.41a1.94 1.94 0 0 0-.6-.12l-4.98-.3c-.22-.01-.44 0-.65.05-1.05.21-2.04.12-3.05.05l-23.47-1.4c-7.27-.43-11.68-6.55-9.8-13.68l39.94-151.7c2.01-7.68 9.71-13.08 17.13-12.03z"/><path d="m1779.63 2015.52 58.87 8.16c4.59.64 7.18 5.09 5.82 9.94l-41.04 145.27c-1.28 4.52-5.96 7.95-10.47 7.67l-57.82-3.57c-4.77-.29-7.66-4.32-6.42-9l39.82-150.58c1.33-5.03 6.37-8.56 11.24-7.89z" style="opacity:.1;fill:#0f1019"/><path class="st4" d="M1829.95 2053.68c-13.62 11.79-27.93 23.46-42.74 35.32-14.77 11.82-30.06 23.84-45.67 36.31l27-102.11c1.33-5.03 6.37-8.57 11.23-7.89l58.84 8.17c4.59.64 7.18 5.09 5.81 9.94l-2.82 9.97c-3.81 3.43-7.7 6.87-11.65 10.29z"/><path class="st8" d="M1845.47 2044.94c.63.08.99.69.8 1.36l-1.45 5.12c-.19.67-.86 1.15-1.49 1.07-.63-.08-.99-.69-.8-1.36l1.45-5.12c.19-.68.86-1.16 1.49-1.07zM1841.29 2056.58c1.1.14 1.72 1.19 1.39 2.34l-2.51 8.84c-.33 1.15-1.48 1.98-2.58 1.86-1.1-.13-1.73-1.17-1.4-2.33l2.51-8.86c.33-1.15 1.49-1.98 2.59-1.85z"/><path class="st8" d="M1837.67 2069.36c1.1.13 1.72 1.17 1.4 2.32l-2.49 8.79c-.33 1.15-1.48 1.98-2.58 1.85-1.1-.12-1.73-1.15-1.4-2.3l2.49-8.81c.33-1.15 1.48-1.98 2.58-1.85z"/><path class="st24" d="M1832.09 2029.95c3.08.67 4.84 3.82 3.96 7.03l-6.45 23.43c-.87 3.18-4.08 5.35-7.18 4.86-3.14-.5-4.99-3.52-4.1-6.76l6.5-23.86c.89-3.27 4.16-5.38 7.27-4.7z"/><path class="st30" d="M1758.01 2044.48c.81.1 1.29.86 1.07 1.68l-6.81 25.83c-.22.82-1.04 1.4-1.85 1.31-.81-.09-1.29-.82-1.08-1.64l6.8-25.87c.23-.83 1.06-1.41 1.87-1.31z"/><path class="st25" d="M1741.14 2116.45c6.12-4.39 33.1 15.47 33.1 15.47s-37.91-38.41-30.78-42.79c7.12-4.37 40.85 28.2 40.85 28.2s-40.17-43.39-36.05-51.4c4.12-8.01 46.57 40.32 46.57 40.32s-29.43-47.58-22.66-52.32c6.76-4.75 36.3 43.41 44.54 51.99 5.35 5.57 12.58 4.9 11.74-3.15-.84-8.05 8.96-20.78 14.7-18.91 5.74 1.88-4.5 26.58.86 34.73 5.36 8.14 9.28 19.07 7.61 24.19-.04 13.03-26.81 32.13-26.81 32.13s-15.04-1.31-27.91-10.11c-12.88-8.81-61.88-43.96-55.76-48.35z"/><g style="opacity:.2"><path class="st39" d="M1843.56 2084.97c1.25 1.45.47 4.81.11 6.17 0 0-2.75.79-2.81-.9-.06-1.71 1.44-6.72 2.7-5.27zM1772.7 2054.56c1.85-.68 5.99 4 5.99 4.71 0 0-4.36 2.61-5.3 2.71-.94.11-2.55-6.74-.69-7.42zM1749.63 2067.12c1.61-1.16 6.85 2.24 7.04 2.92 0 0-3.49 3.69-4.37 4.04s-4.27-5.8-2.67-6.96zM1744.79 2091.02c1.55-1.23 6.94 1.93 7.16 2.6 0 0-3.32 3.84-4.18 4.24-.86.39-4.53-5.61-2.98-6.84zM1742.32 2117.44c1.19-1.14 5.91 1.06 6.14 1.6 0 0-2.46 3.44-3.15 3.83-.68.41-4.18-4.29-2.99-5.43z"/></g><path class="st5" d="M2479.87 1729.5h-507.24c-26.86 0-48.63 21.77-48.63 48.63v115.53c0 26.86 21.77 48.63 48.63 48.63h507.24c26.86 0 48.63-21.77 48.63-48.63v-115.53c0-26.86-21.77-48.63-48.63-48.63z"/><path class="st19" d="M2449.57 1690.28h-507.25c-26.86 0-48.63 21.77-48.63 48.63v115.53c0 26.86 21.77 48.63 48.63 48.63h507.25c26.86 0 48.63-21.77 48.63-48.63v-115.53c0-26.85-21.77-48.63-48.63-48.63z"/><path class="st0" d="M2146.25 1788.08h82.22c5.34 0 9.67-4.33 9.67-9.67s-4.33-9.67-9.67-9.67h-82.22c-5.34 0-9.67 4.33-9.67 9.67s4.33 9.67 9.67 9.67zM2264.47 1788.08h47.26c5.34 0 9.67-4.33 9.67-9.67s-4.33-9.67-9.67-9.67h-47.26c-5.34 0-9.67 4.33-9.67 9.67s4.33 9.67 9.67 9.67zM2440.17 1768.74h-92.43c-5.34 0-9.67 4.33-9.67 9.67s4.33 9.67 9.67 9.67h92.43c5.34 0 9.67-4.33 9.67-9.67s-4.33-9.67-9.67-9.67zM2235.43 1823.55h-89.17c-5.34 0-9.67 4.33-9.67 9.67s4.33 9.67 9.67 9.67h89.17c5.34 0 9.67-4.33 9.67-9.67s-4.33-9.67-9.67-9.67zM2410.34 1823.55h-138.91c-5.34 0-9.67 4.33-9.67 9.67s4.33 9.67 9.67 9.67h138.91c5.34 0 9.67-4.33 9.67-9.67s-4.33-9.67-9.67-9.67z"/><circle transform="rotate(-31.163 1991.712 1762.934)" class="st19" cx="1991.87" cy="1763.09" r="113.54"/><path class="st0" d="M2095.36 1765.69c-1.44 57.15-48.93 102.32-106.09 100.88-57.15-1.44-102.32-48.93-100.88-106.09 1.44-57.15 48.93-102.32 106.09-100.89 57.15 1.45 102.31 48.95 100.88 106.1z"/><path class="st17" d="M1923.44 1714.3c5.53-9.06 9.83-18.14 18.01-25.28 8.03-7.01 17.53-11.65 27.51-15.21 14.69-5.23 30.03-7.72 45.03-11.63-6.33-1.39-12.8-2.4-19.52-2.57-45.02-1.13-83.95 26.72-99.19 66.51 10.23 2.33 21.66-1.18 28.16-11.82z"/><path class="st5" d="M2055.28 1695.61c-5.13 6.45.68 19.67 3.05 26.18 3.17 8.7 7.52 17.03 10.03 25.96 6.36 22.66 9.21 51.4-7.04 70.63-5.15 6.1-12.09 9.98-17.82 15.42-4.95 4.7-9.15 10.1-14.41 14.49-10.79 9-24.15 12.77-38.07 11.23-13.63-1.5-36.91-11.54-53.98-8.76 15.2 9.52 33 15.31 52.23 15.8 57.15 1.44 104.65-43.73 106.09-100.88.72-28.87-10.46-55.24-29.05-74.49-4.27-.19-8.24.91-11.03 4.42z"/><path class="st36" d="M2050.92 1739.11c-.03.81-.06 1.62-.1 2.44-.28 6.09-.9 11.98-1.85 17.68-1.23 7.37-3.03 14.42-5.4 21.25-4.08 11.76-9.64 21.4-16.85 29.25a71.738 71.738 0 0 1-6.42 6.15c-.06.04-.11.09-.16.13a63.413 63.413 0 0 1-8.44 5.97c-5.04 3.01-10.52 5.31-16.34 6.91a6.8 6.8 0 0 1-1.35.22l-.25.02-.27-.02c-.48-.03-.94-.11-1.36-.23-5.11-1.39-9.96-3.34-14.49-5.84a61.4 61.4 0 0 1-4.45-2.71 66.99 66.99 0 0 1-5.97-4.45c-6.33-5.31-11.62-11.66-15.96-19.17-2.82-4.89-5.25-10.28-7.32-16.21a130.93 130.93 0 0 1-5.25-20.38c-.07-.39-.13-.77-.19-1.16-.81-4.9-1.37-9.95-1.69-15.14-.35-5.89-.39-11.99-.12-18.31v-3.26c0-3.92 3.19-7.11 7.12-7.11h9.08c1.23-.03 20.41-.87 37.79-20.87l3.09-3.56 3.09 3.56c17.37 20.01 36.58 20.84 37.8 20.87h9.06c3.93 0 7.13 3.19 7.13 7.11v3.33c.18 4.61.21 9.13.07 13.53z"/><path class="st16" d="M1993.75 1702.05c-17.36 19.98-36.72 20.48-37.56 20.49h-8.39c-1.53 0-2.78 1.25-2.78 2.78v3.08c-.79 18.34 1.32 34.44 6.47 49.27 4.57 13.17 11.2 23.28 20.28 30.91 6.25 5.26 13.48 9.04 21.51 11.22.14.04.3.07.48.08.18-.01.34-.04.47-.07 8.03-2.19 15.27-5.96 21.52-11.22 9.08-7.63 15.71-17.75 20.28-30.91 5.15-14.83 7.26-30.93 6.47-49.21v-3.14c0-1.53-1.25-2.78-2.78-2.78h-8.37c-.87-.02-20.24-.51-37.6-20.5z"/><path class="st15" d="M2013.73 1748.42h-2.33c-5.15 0-9.33-4.18-9.33-9.33v-2.33c0-5.15-4.18-9.33-9.33-9.33s-9.33 4.18-9.33 9.33v2.33c0 5.15-4.18 9.33-9.33 9.33h-2.33c-5.15 0-9.33 4.18-9.33 9.33s4.18 9.33 9.33 9.33h2.33c5.15 0 9.33 4.18 9.33 9.33v2.33c0 5.15 4.18 9.33 9.33 9.33s9.33-4.18 9.33-9.33v-2.33c0-5.15 4.18-9.33 9.33-9.33h2.33c5.15 0 9.33-4.18 9.33-9.33-.01-5.15-4.18-9.33-9.33-9.33z"/><path class="st5" d="M1068.78 1553.81h-482.3c-25.54 0-46.24 20.7-46.24 46.24v109.85c0 25.54 20.7 46.24 46.24 46.24h482.3c25.54 0 46.24-20.7 46.24-46.24v-109.85c0-25.54-20.7-46.24-46.24-46.24z"/><path class="st19" d="M1039.97 1516.53h-482.3c-25.54 0-46.24 20.7-46.24 46.24v109.85c0 25.54 20.7 46.24 46.24 46.24h482.3c25.54 0 46.24-20.7 46.24-46.24v-109.85c0-25.54-20.71-46.24-46.24-46.24z"/><path class="st0" d="M751.57 1609.52h78.17c5.08 0 9.2-4.12 9.2-9.2 0-5.08-4.12-9.2-9.2-9.2h-78.17c-5.08 0-9.2 4.12-9.2 9.2 0 5.08 4.12 9.2 9.2 9.2zM863.97 1609.52h44.94c5.08 0 9.2-4.12 9.2-9.2 0-5.08-4.12-9.2-9.2-9.2h-44.94c-5.08 0-9.2 4.12-9.2 9.2.01 5.08 4.12 9.2 9.2 9.2zM1031.03 1591.12h-87.89c-5.08 0-9.2 4.12-9.2 9.2 0 5.08 4.12 9.2 9.2 9.2h87.89c5.08 0 9.2-4.12 9.2-9.2-.01-5.08-4.12-9.2-9.2-9.2zM836.35 1643.24h-84.79c-5.08 0-9.2 4.12-9.2 9.2 0 5.08 4.12 9.2 9.2 9.2h84.79c5.08 0 9.2-4.12 9.2-9.2 0-5.09-4.12-9.2-9.2-9.2zM1002.67 1643.24H870.59c-5.08 0-9.2 4.12-9.2 9.2 0 5.08 4.12 9.2 9.2 9.2h132.08c5.08 0 9.2-4.12 9.2-9.2 0-5.09-4.12-9.2-9.2-9.2z"/><path class="st19" d="M712.7 1588.47c-1.5 59.6-51.03 106.71-110.63 105.21-59.6-1.5-106.71-51.03-105.21-110.63 1.5-59.6 51.03-106.71 110.63-105.21 59.6 1.49 106.71 51.02 105.21 110.63z"/><path class="st0" d="M703.18 1588.23c-1.37 54.34-46.53 97.29-100.87 95.92-54.34-1.37-97.29-46.53-95.92-100.87 1.36-54.34 46.53-97.29 100.87-95.92 54.33 1.36 97.28 46.52 95.92 100.87z"/><path class="st17" d="M539.71 1539.36c5.26-8.61 9.34-17.25 17.12-24.04 7.64-6.67 16.67-11.08 26.16-14.46 13.97-4.98 28.55-7.34 42.82-11.06-6.02-1.32-12.17-2.28-18.56-2.44-42.81-1.07-79.82 25.4-94.31 63.24 9.72 2.22 20.59-1.12 26.77-11.24z"/><path class="st5" d="M665.07 1521.59c-4.88 6.13.65 18.7 2.9 24.9 3.02 8.27 7.15 16.2 9.53 24.69 6.05 21.54 8.76 48.88-6.69 67.16-4.9 5.8-11.5 9.49-16.95 14.67-4.71 4.47-8.7 9.61-13.7 13.78-10.26 8.56-22.96 12.14-36.19 10.68-12.96-1.43-35.1-10.97-51.32-8.33 14.45 9.05 31.38 14.56 49.66 15.02 54.34 1.37 99.5-41.58 100.87-95.92.69-27.45-9.95-52.53-27.62-70.83-4.07-.2-7.84.84-10.49 4.18z"/><path class="st36" d="m662.33 1630.6-9.02-99.62c-.67-7.45-6.92-13.15-14.39-13.15h-77.24c-7.48 0-13.72 5.7-14.39 13.15l-9.02 99.62c-.77 8.46 5.9 15.76 14.39 15.76h95.27c8.5 0 15.16-7.29 14.4-15.76z"/><path class="st0" d="M600.36 1566.74c-17.77 0-32.24-14.46-32.24-32.24 0-2.88 2.34-5.23 5.23-5.23 2.89 0 5.23 2.34 5.23 5.23 0 12.02 9.77 21.79 21.78 21.79 12.02 0 21.79-9.77 21.79-21.79 0-2.88 2.34-5.23 5.23-5.23 2.89 0 5.23 2.34 5.23 5.23-.01 17.78-14.47 32.24-32.25 32.24z"/><path class="st16" d="m593.11 1607.41 6.3 32.37c.47 6.41 4.83 11.31 10.05 11.31h53.95c5.22 0 9.58-4.91 10.05-11.31l6.3-32.37c.53-7.28-4.12-13.55-10.05-13.55h-66.54c-5.94-.01-10.59 6.27-10.06 13.55z"/><path class="st16" d="M683.57 1607.47H589.3a.57.57 0 0 1-.57-.57v-18.23c0-.31.25-.57.57-.57h94.27c.31 0 .57.25.57.57v18.23c0 .32-.25.57-.57.57z"/><path class="st15" d="M612.97 1640.25v-26.19c0-1.43-1.39-2.58-3.09-2.58-1.71 0-3.09 1.16-3.09 2.58v26.19c0 1.43 1.39 2.58 3.09 2.58s3.09-1.15 3.09-2.58zM630.68 1640.25v-26.19c0-1.43-1.39-2.58-3.09-2.58-1.71 0-3.09 1.16-3.09 2.58v26.19c0 1.43 1.39 2.58 3.09 2.58s3.09-1.15 3.09-2.58zM648.39 1640.25v-26.19c0-1.43-1.39-2.58-3.09-2.58s-3.09 1.16-3.09 2.58v26.19c0 1.43 1.39 2.58 3.09 2.58s3.09-1.15 3.09-2.58zM666.1 1640.25v-26.19c0-1.43-1.39-2.58-3.09-2.58-1.71 0-3.09 1.16-3.09 2.58v26.19c0 1.43 1.39 2.58 3.09 2.58s3.09-1.15 3.09-2.58z"/><path class="st5" d="M1154.4 1990.98H748.28c-21.51 0-38.94 17.43-38.94 38.94v92.5c0 21.5 17.43 38.94 38.94 38.94h406.12c21.5 0 38.94-17.43 38.94-38.94v-92.5c0-21.51-17.43-38.94-38.94-38.94z"/><path class="st19" d="M1130.14 1959.58H724.02c-21.5 0-38.94 17.43-38.94 38.94v92.5c0 21.5 17.43 38.94 38.94 38.94h406.12c21.5 0 38.94-17.43 38.94-38.94v-92.5c0-21.51-17.43-38.94-38.94-38.94z"/><path class="st0" d="M887.29 2037.88h65.82a7.74 7.74 0 0 0 7.74-7.74 7.74 7.74 0 0 0-7.74-7.74h-65.82a7.74 7.74 0 0 0-7.74 7.74c0 4.28 3.46 7.74 7.74 7.74zM981.94 2037.88h37.84a7.74 7.74 0 0 0 7.74-7.74 7.74 7.74 0 0 0-7.74-7.74h-37.84a7.74 7.74 0 0 0-7.74 7.74c0 4.28 3.46 7.74 7.74 7.74zM1122.61 2022.4h-74a7.74 7.74 0 0 0-7.74 7.74 7.74 7.74 0 0 0 7.74 7.74h74a7.74 7.74 0 0 0 7.74-7.74c.01-4.28-3.46-7.74-7.74-7.74zM958.69 2066.28h-71.4a7.74 7.74 0 0 0-7.74 7.74 7.74 7.74 0 0 0 7.74 7.74h71.4a7.74 7.74 0 1 0 0-15.48zM1098.73 2066.28H987.51a7.74 7.74 0 0 0-7.74 7.74 7.74 7.74 0 0 0 7.74 7.74h111.22a7.74 7.74 0 0 0 7.74-7.74c.01-4.27-3.46-7.74-7.74-7.74z"/><path class="st19" d="M854.56 2020.16c-1.26 50.19-42.97 89.85-93.16 88.59-50.19-1.26-89.85-42.97-88.59-93.16 1.26-50.19 42.97-89.85 93.16-88.59 50.19 1.26 89.85 42.97 88.59 93.16z"/><path class="st0" d="M846.54 2019.96c-1.15 45.76-39.18 81.92-84.94 80.77-45.76-1.15-81.92-39.18-80.77-84.94 1.15-45.76 39.18-81.92 84.94-80.77 45.76 1.15 81.92 39.18 80.77 84.94z"/><path class="st17" d="M708.9 1978.81c4.43-7.25 7.87-14.52 14.42-20.24 6.43-5.62 14.03-9.33 22.03-12.18 11.76-4.19 24.04-6.18 36.06-9.31-5.07-1.11-10.25-1.92-15.63-2.05-36.05-.91-67.21 21.39-79.42 53.25 8.18 1.86 17.33-.95 22.54-9.47z"/><path class="st5" d="M814.46 1963.84c-4.11 5.17.54 15.75 2.44 20.96 2.54 6.97 6.02 13.64 8.03 20.79 5.09 18.14 7.37 41.16-5.64 56.55-4.13 4.88-9.68 7.99-14.27 12.35-3.97 3.76-7.33 8.09-11.54 11.6-8.64 7.21-19.33 10.22-30.48 9-10.92-1.2-29.55-9.24-43.22-7.01 12.17 7.62 26.42 12.26 41.82 12.65 45.76 1.15 83.79-35.01 84.94-80.77.58-23.11-8.38-44.23-23.26-59.64-3.41-.16-6.59.71-8.82 3.52z"/><path class="st19" d="m754.98 1957.39 41.52-2.29-20.1 44.49 31.14-1.72-64.6 86.87 16.06-54.69-32.87 1.82z"/></svg>